<?xml version="1.0" encoding="UTF-8"?>
<svg id="Capa_1" data-name="Capa 1" xmlns="http://www.w3.org/2000/svg" viewBox="0 0 305.9307 305.9307">
  <defs>
    <style>
      .cls-1 {
        fill: #f5a60d;
      }

      .cls-2, .cls-3 {
        fill: #fff;
      }

      .cls-3 {
        font-family: BigJohn, 'Big John';
        font-size: 57.1098px;
      }

      .cls-4 {
        fill: #f5a50e;
      }

      .cls-5 {
        fill: #e27a00;
      }

      .cls-6 {
        fill: #9f3621;
      }

      .cls-7 {
        fill: #7b201f;
      }
    </style>
  </defs>
  <circle cx="152.9653" cy="152.9653" r="152.9653"/>
  <text class="cls-3" transform="translate(71.7514 253.7624)"><tspan x="0" y="0">UEHA</tspan></text>
  <g>
    <path class="cls-1" d="m67.4721,42.3614c4.4483,31.3448,66.4138,28.2414,73.8621,55.8621,0,0,1.3448-5.1724-2.069-10.8621,0,0,11.9483,4.8621,17.3793,10.5259v21.9569c-13.7241,12.2414-17.2414-8.931-39.0345-19.7586,0,0,6.3448-.3448,9.8621-2.7931-16.3448,3.2069-29.1268-6.2069-41.4027,14.2414,0,0-3.4939-22.8276,18.9544-25.3103,0,0-40.4483-9.7241-37.5517-43.8621Z"/>
    <path class="cls-4" d="m156.6445,166.6373l-10.7586-23.5862s-3.1724-7.1724,10.7586-7.1724v30.7586Z"/>
    <path class="cls-6" d="m136.6445,160.9821s.2414,15.4483,14.4654,36.1379c0,0-15.7067-3.3103-28.2585-15.1724,0,0,.1379,10.4828,4.9655,18.2069,0,0-31.5862-24.5517-35.5862-57.2414,0,0-5.5172,3.7241-6.069,4.9655,0,0-2.1379-17.3793,13.931-26.8652,0,0-6.6207,19.1411,9.2414,35.0031,0,0-3.5862-10-1.931-15.5862,0,0,2.069,15.3103,22.6207,19.0345,0,0-2.0086,7.1897-3.4828,8.6638,0,0,5.819-5.0431,10.1034-7.1466Z"/>
    <path class="cls-1" d="m137.9701,136.6524c-1.7166,1.6819-4.0645,2.7219-6.6575,2.7219-5.1618,0-9.3539-4.1119-9.5031-9.2375,0,0,0,.0001,0,.0002-.3134-.8914-.4926-1.8459-.4926-2.8445,0-2.0415.7155-3.9141,1.9054-5.3877l-5.0471-5.0471c-2.7095,2.5561-4.4101,6.1701-4.4101,10.1891,0,7.7423,6.2764,14.0187,14.0187,14.0187,4.019,0,7.633-1.7006,10.1891-4.4101l-.0029-.0029Z"/>
    <path class="cls-5" d="m137.9701,136.6524l-2.6792-2.6792c-1.4736,1.1899-3.3463,1.9054-5.3878,1.9054-3.7435,0-6.9187-2.3999-8.0936-5.7419.1492,5.1257,4.3413,9.2375,9.5031,9.2375,2.593,0,4.9409-1.04,6.6575-2.7219Z"/>
    <path class="cls-5" d="m156.6445,135.8786s-8.7463,11.5839-6.19,17.1883l6.19,13.5703v-30.7586Z"/>
    <path class="cls-7" d="m116.0927,164.3269c-2.3103,3.5862-2.3276,9.931-2.3276,9.931-18.2586-17.8965-18.6724-42.4138-18.6724-42.4138-4.6552,4.6552-5.4819,12.9321-5.4819,12.9321h0c1.3691-1.0177,2.6199-1.8632,2.6199-1.8632,4,32.6896,35.5862,57.2413,35.5862,57.2413-4.8276-7.7241-4.9655-18.2068-4.9655-18.2068,12.5517,11.8621,28.2584,15.1724,28.2584,15.1724-23.2242-13.3448-30.6033-27.7241-35.0171-32.7931Z"/>
    <circle class="cls-2" cx="123.7365" cy="124.3312" r="3.2701"/>
    <path class="cls-2" d="m105.61,77.3959c-5.2414,0-18.4828-3.0345-18.4828-3.0345,27.5862,10.8276,38.4109,6.9019,54.2069,23.8621-7.4482-27.6207-69.4138-24.5172-73.8621-55.8621,0,25.1724,38.1379,35.0345,38.1379,35.0345Z"/>
    <path class="cls-4" d="m245.8169,42.3614c-4.4483,31.3448-66.4138,28.2414-73.8621,55.8621,0,0-1.3448-5.1724,2.069-10.8621,0,0-11.9483,4.8621-17.3793,10.5259,0,2.7149,0,15.1629,0,21.9569,13.7241,12.2414,17.2414-8.931,39.0345-19.7586,0,0-6.3448-.3448-9.8621-2.7931,16.3448,3.2069,29.1268-6.2069,41.4027,14.2414,0,0,3.4939-22.8276-18.9544-25.3103,0,0,40.4483-9.7241,37.5517-43.8621Z"/>
    <path class="cls-4" d="m156.6445,166.6373l10.7586-23.5862s3.1724-7.1724-10.7586-7.1724v30.7586Z"/>
    <path class="cls-6" d="m176.6445,160.9821s-.2414,15.4483-14.4654,36.1379c0,0,15.7067-3.3103,28.2585-15.1724,0,0-.1379,10.4828-4.9655,18.2069,0,0,31.5862-24.5517,35.5862-57.2414,0,0,5.5172,3.7241,6.069,4.9655,0,0,2.1379-17.3793-13.931-26.8652,0,0,6.6207,19.1411-9.2414,35.0031,0,0,3.5862-10,1.931-15.5862,0,0-2.069,15.3103-22.6207,19.0345,0,0,2.0086,7.1897,3.4828,8.6638,0,0-5.819-5.0431-10.1034-7.1466Z"/>
    <path class="cls-1" d="m175.3189,136.6524c1.7166,1.6819,4.0645,2.7219,6.6575,2.7219,5.1618,0,9.3539-4.1119,9.5031-9.2375,0,0,0,.0001,0,.0002.3134-.8914.4926-1.8459.4926-2.8445,0-2.0415-.7155-3.9141-1.9054-5.3877l5.0471-5.0471c2.7095,2.5561,4.4101,6.1701,4.4101,10.1891,0,7.7423-6.2764,14.0187-14.0187,14.0187-4.019,0-7.633-1.7006-10.1891-4.4101l.0029-.0029Z"/>
    <path class="cls-5" d="m175.3189,136.6524l2.6792-2.6792c1.4736,1.1899,3.3463,1.9054,5.3878,1.9054,3.7435,0,6.9187-2.3999,8.0936-5.7419-.1492,5.1257-4.3413,9.2375-9.5031,9.2375-2.593,0-4.9409-1.04-6.6575-2.7219Z"/>
    <path class="cls-7" d="m197.1962,164.3269c2.3103,3.5862,2.3276,9.931,2.3276,9.931,18.2586-17.8965,18.6724-42.4138,18.6724-42.4138,4.6552,4.6552,5.4819,12.9321,5.4819,12.9321h0c-1.3691-1.0177-2.6199-1.8632-2.6199-1.8632-4,32.6896-35.5862,57.2413-35.5862,57.2413,4.8276-7.7241,4.9655-18.2068,4.9655-18.2068-12.5517,11.8621-28.2584,15.1724-28.2584,15.1724,23.2242-13.3448,30.6033-27.7241,35.0171-32.7931Z"/>
    <circle class="cls-2" cx="189.5525" cy="124.3312" r="3.2701"/>
    <path class="cls-2" d="m207.679,77.3959c5.2414,0,18.4828-3.0345,18.4828-3.0345-27.5862,10.8276-38.4109,6.9019-54.2069,23.8621,7.4482-27.6207,69.4138-24.5172,73.8621-55.8621,0,25.1724-38.1379,35.0345-38.1379,35.0345Z"/>
    <path class="cls-5" d="m156.6445,135.8806s8.7463,11.5839,6.19,17.1883l-6.19,13.5703v-30.7586Z"/>
  </g>
</svg>