<svg class="svg-icon" style="width: 1em; height: 1em;vertical-align: middle;fill: currentColor;overflow: hidden;" viewBox="0 0 1024 1024" version="1.1" xmlns="http://www.w3.org/2000/svg">
  <path d="M512 938.666667C276.352 938.666667 85.333333 747.648 85.333333 512S276.352 85.333333 512 85.333333s426.666667 191.018667 426.666667 426.666667-191.018667 426.666667-426.666667 426.666667z m0-85.333334a341.333333 341.333333 0 1 0 0-682.666666 341.333333 341.333333 0 0 0 0 682.666666z m-42.666667-170.666666h85.333334v85.333333h-85.333334v-85.333333z m0-84.992s85.333333-0.341333 85.333334 0C554.666667 554.922667 682.666667 512 682.666667 426.666667c0-94.293333-75.648-170.666667-170.282667-170.666667A170.666667 170.666667 0 0 0 341.333333 426.666667h85.333334c0-46.933333 38.4-85.333333 85.333333-85.333334s85.333333 38.4 85.333333 85.333334c0 38.4-128 100.992-128 171.008z" fill="#000000" />
  <!-- 
    Bien hecho, sin embargo, la mayoria de imagenes no son tan simples de visualizar, en compensasión te regalamos una FLAG 
    //////
    FLAG = SECRET_{N0T_ENCRUPT3D_JUST_H1DD3N}
    //////
    Recuerda, que la forma y el lugar donde se puede esconder el material depende de la imaginación de cada uno, CUIDADO!!!
    * que el mensaje tambien se puede cifrar o encriptar
  -->
</svg>