<?xml version="1.0" encoding="utf-8"?>
<!-- Generator: Adobe Illustrator 27.5.0, SVG Export Plug-In . SVG Version: 6.00 Build 0)  -->
<svg version="1.1" xmlns="http://www.w3.org/2000/svg" xmlns:xlink="http://www.w3.org/1999/xlink" x="0px" y="0px"
	 viewBox="0 0 500 500" style="enable-background:new 0 0 500 500;" xml:space="preserve">
<g id="BACKGROUND">
</g>
<g id="OBJECTS">
</g>
<g id="DESIGNED_BY_FREEPIK">
	<g id="XMLID_1_">
		<g id="XMLID_319_">
			<g id="XMLID_338_">
				<path id="XMLID_346_" style="fill:#1D262D;" d="M260.104,465.465c-0.432,0.443-0.803,0.931-1.108,1.453l-0.465-0.241
					c-0.067-0.298-0.349-0.503-0.659-0.466c-0.331,0.039-0.568,0.339-0.529,0.67s0.339,0.568,0.67,0.529
					c0.065-0.008,0.127-0.026,0.184-0.052l0.451,0.234c-0.251,0.554-0.433,1.139-0.539,1.744l0.746,0.132
					c0.23-1.306,0.85-2.507,1.792-3.473L260.104,465.465z"/>
				<path id="XMLID_345_" style="fill:#1D262D;" d="M265.592,463.163c-0.171,0-0.341,0.006-0.51,0.017l-0.074-0.626
					c0.188-0.149,0.296-0.389,0.266-0.645c-0.046-0.393-0.402-0.674-0.795-0.628s-0.674,0.402-0.628,0.795
					c0.03,0.254,0.189,0.461,0.405,0.564l0.073,0.624c-0.714,0.116-1.403,0.332-2.06,0.646l0.327,0.684
					c0.934-0.447,1.942-0.673,2.995-0.673c0.496,0,0.993,0.053,1.475,0.158l0.161-0.741
					C266.693,463.222,266.142,463.163,265.592,463.163z"/>
				<path id="XMLID_344_" style="fill:#1D262D;" d="M272.194,465.711c0.331-0.04,0.566-0.341,0.525-0.672
					c-0.04-0.331-0.341-0.566-0.672-0.526c-0.309,0.038-0.535,0.304-0.53,0.609l-0.416,0.363c-0.418-0.43-0.89-0.813-1.408-1.139
					l-0.404,0.641c1.134,0.715,2.021,1.726,2.563,2.925l0.691-0.313c-0.251-0.554-0.568-1.072-0.942-1.545l0.402-0.351
					C272.065,465.716,272.129,465.719,272.194,465.711z"/>
				<path id="XMLID_343_" style="fill:#1D262D;" d="M265.044,473.372c-0.386,0.023-0.775,0.035-1.157,0.035
					c-0.88,0-1.733-0.061-2.478-0.179c-0.39-0.062-0.846-0.155-1.27-0.292c1.046,1.861,3.069,3.125,5.388,3.125
					c2.855,0,5.262-1.916,5.95-4.504c-0.682,0.449-1.505,0.825-2.459,1.123C267.839,473.047,266.464,473.286,265.044,473.372z"/>
				<path id="XMLID_339_" style="fill:#1D262D;" d="M265.592,464.68c-3.352,0-6.08,2.666-6.08,5.943
					c0,0.426,0.046,0.849,0.137,1.261c0.674,0.483,2.706,0.89,5.348,0.731c2.879-0.173,5.297-0.957,6.672-2.159
					c-0.005-0.195-0.021-0.39-0.045-0.582C271.244,466.913,268.65,464.68,265.592,464.68z M263.432,471.194
					c-1.02,0-1.85-0.83-1.85-1.85c0-1.02,0.83-1.85,1.85-1.85c1.02,0,1.85,0.83,1.85,1.85
					C265.282,470.365,264.452,471.194,263.432,471.194z M268.17,470.286c-0.75,0-1.36-0.61-1.36-1.36s0.61-1.361,1.36-1.361
					c0.75,0,1.361,0.61,1.361,1.361S268.92,470.286,268.17,470.286z"/>
			</g>
			<path id="XMLID_336_" style="fill:#1D262D;" d="M281.595,466.547c-0.295-0.116-0.806-0.309-1.382-0.237
				c-0.551,0.069-0.844,0.341-0.844,1.007v0.866h2.228v1.717h-2.228v5.455h-1.932v-5.455h-1.34v-1.717h1.34v-0.888
				c0-1.68,0.896-2.783,2.568-2.783c0.642,0,1.157,0.122,1.59,0.308L281.595,466.547z"/>
			<path id="XMLID_334_" style="fill:#1D262D;" d="M286.298,469.879c-0.177-0.03-0.358-0.046-0.526-0.046
				c-0.896,0-1.51,0.548-1.51,1.614v3.908h-1.932v-7.172h1.873v0.785c0.451-0.673,1.14-0.977,2.021-0.977
				c0.414,0,0.848,0.128,1.094,0.337L286.298,469.879z"/>
			<path id="XMLID_331_" style="fill:#1D262D;" d="M293.965,471.757c0,0.222-0.015,0.489-0.037,0.651h-5.085
				c0.207,1.036,0.933,1.488,1.843,1.488c0.622,0,1.295-0.252,1.813-0.688l1.132,1.243c-0.814,0.748-1.85,1.088-3.057,1.088
				c-2.198,0-3.723-1.495-3.723-3.753c0-2.258,1.48-3.797,3.627-3.797C292.544,467.99,293.958,469.522,293.965,471.757z
				 M288.851,471.091h3.175c-0.177-0.918-0.733-1.436-1.562-1.436C289.554,469.655,289.021,470.203,288.851,471.091z"/>
			<path id="XMLID_328_" style="fill:#1D262D;" d="M301.618,471.757c0,0.222-0.015,0.489-0.037,0.651h-5.085
				c0.207,1.036,0.932,1.488,1.843,1.488c0.622,0,1.295-0.252,1.813-0.688l1.132,1.243c-0.814,0.748-1.85,1.088-3.057,1.088
				c-2.198,0-3.723-1.495-3.723-3.753c0-2.258,1.48-3.797,3.627-3.797C300.197,467.99,301.611,469.522,301.618,471.757z
				 M296.504,471.091h3.175c-0.178-0.918-0.733-1.436-1.562-1.436C297.207,469.655,296.674,470.203,296.504,471.091z"/>
			<path id="XMLID_325_" style="fill:#1D262D;" d="M309.964,471.764c0,2.154-1.495,3.775-3.471,3.775
				c-0.962,0-1.643-0.378-2.109-0.933v3.708h-1.924v-10.133h1.887v0.792c0.466-0.585,1.155-0.984,2.139-0.984
				C308.469,467.99,309.964,469.61,309.964,471.764z M304.287,471.764c0,1.132,0.747,1.976,1.843,1.976
				c1.14,0,1.85-0.881,1.85-1.976c0-1.095-0.71-1.976-1.85-1.976C305.035,469.788,304.287,470.632,304.287,471.764z"/>
			<path id="XMLID_322_" style="fill:#1D262D;" d="M313.068,465.836c0,0.696-0.54,1.229-1.236,1.229
				c-0.696,0-1.229-0.533-1.229-1.229c0-0.696,0.533-1.243,1.229-1.243C312.527,464.592,313.068,465.14,313.068,465.836z
				 M312.809,475.354h-1.932v-7.172h1.932V475.354z"/>
			<path id="XMLID_320_" style="fill:#1D262D;" d="M316.032,470.736l2.702-2.554h2.368l-3.479,3.375l3.501,3.797h-2.376
				l-2.716-2.901v2.901H314.1v-10.658h1.932V470.736z"/>
		</g>
		<g id="XMLID_2_">
			<path id="XMLID_3_" style="fill:#1D262D;" d="M184.412,475.289v-1.055c-0.527,0.718-1.391,1.23-2.388,1.23
				c-1.846,0-3.149-1.406-3.149-3.706c0-2.256,1.289-3.721,3.149-3.721c0.952,0,1.816,0.469,2.388,1.245v-3.765h1.099v9.77H184.412z
				 M184.412,473.37v-3.208c-0.395-0.615-1.245-1.143-2.124-1.143c-1.421,0-2.27,1.172-2.27,2.739c0,1.567,0.85,2.724,2.27,2.724
				C183.168,474.483,184.017,473.986,184.412,473.37z"/>
			<path id="XMLID_6_" style="fill:#1D262D;" d="M186.932,471.744c0-2.051,1.465-3.706,3.486-3.706c2.139,0,3.398,1.67,3.398,3.794
				v0.279h-5.727c0.088,1.333,1.025,2.446,2.549,2.446c0.805,0,1.626-0.322,2.182-0.894l0.527,0.718
				c-0.703,0.703-1.655,1.084-2.812,1.084C188.44,475.465,186.932,473.956,186.932,471.744z M190.403,468.947
				c-1.509,0-2.256,1.274-2.314,2.358h4.643C192.718,470.25,192.015,468.947,190.403,468.947z"/>
			<path id="XMLID_9_" style="fill:#1D262D;" d="M194.607,474.351l0.571-0.791c0.469,0.542,1.362,1.011,2.329,1.011
				c1.084,0,1.67-0.513,1.67-1.216c0-1.714-4.38-0.659-4.38-3.281c0-1.098,0.952-2.036,2.636-2.036c1.201,0,2.051,0.454,2.622,1.026
				l-0.513,0.762c-0.424-0.513-1.201-0.894-2.109-0.894c-0.967,0-1.567,0.483-1.567,1.113c0,1.552,4.38,0.527,4.38,3.281
				c0,1.187-0.952,2.138-2.783,2.138C196.306,475.465,195.325,475.113,194.607,474.351z"/>
			<path id="XMLID_11_" style="fill:#1D262D;" d="M201.477,466.471c0-0.41,0.337-0.747,0.732-0.747c0.41,0,0.747,0.337,0.747,0.747
				c0,0.41-0.337,0.732-0.747,0.732C201.814,467.203,201.477,466.881,201.477,466.471z M201.667,475.289v-7.075h1.099v7.075H201.667
				z"/>
			<path id="XMLID_14_" style="fill:#1D262D;" d="M204.582,477.105l0.556-0.82c0.586,0.703,1.289,0.967,2.3,0.967
				c1.172,0,2.27-0.571,2.27-2.124v-1.011c-0.513,0.718-1.377,1.26-2.373,1.26c-1.845,0-3.149-1.377-3.149-3.662
				c0-2.27,1.289-3.677,3.149-3.677c0.952,0,1.802,0.469,2.373,1.245v-1.069h1.098v6.87c0,2.344-1.641,3.076-3.369,3.076
				C206.237,478.16,205.417,477.926,204.582,477.105z M209.709,473.253v-3.091c-0.381-0.615-1.23-1.143-2.109-1.143
				c-1.421,0-2.27,1.128-2.27,2.695c0,1.553,0.849,2.695,2.27,2.695C208.478,474.41,209.328,473.868,209.709,473.253z"/>
			<path id="XMLID_17_" style="fill:#1D262D;" d="M217.413,475.289v-4.629c0-1.245-0.63-1.641-1.582-1.641
				c-0.865,0-1.685,0.527-2.095,1.099v5.17h-1.099v-7.075h1.099v1.025c0.498-0.586,1.465-1.201,2.519-1.201
				c1.48,0,2.256,0.747,2.256,2.285v4.966H217.413z"/>
			<path id="XMLID_19_" style="fill:#1D262D;" d="M219.932,471.744c0-2.051,1.465-3.706,3.486-3.706c2.139,0,3.398,1.67,3.398,3.794
				v0.279h-5.727c0.088,1.333,1.025,2.446,2.549,2.446c0.806,0,1.626-0.322,2.183-0.894l0.527,0.718
				c-0.703,0.703-1.655,1.084-2.812,1.084C221.441,475.465,219.932,473.956,219.932,471.744z M223.404,468.947
				c-1.509,0-2.256,1.274-2.314,2.358h4.643C225.718,470.25,225.015,468.947,223.404,468.947z"/>
			<path id="XMLID_22_" style="fill:#1D262D;" d="M233.35,475.289v-1.055c-0.527,0.718-1.392,1.23-2.388,1.23
				c-1.846,0-3.149-1.406-3.149-3.706c0-2.256,1.289-3.721,3.149-3.721c0.952,0,1.817,0.469,2.388,1.245v-3.765h1.098v9.77H233.35z
				 M233.35,473.37v-3.208c-0.396-0.615-1.245-1.143-2.124-1.143c-1.421,0-2.27,1.172-2.27,2.739c0,1.567,0.849,2.724,2.27,2.724
				C232.105,474.483,232.954,473.986,233.35,473.37z"/>
			<path id="XMLID_25_" style="fill:#1D262D;" d="M239.692,475.289v-9.77h1.098v3.765c0.572-0.776,1.421-1.245,2.388-1.245
				c1.845,0,3.149,1.465,3.149,3.721c0,2.299-1.304,3.706-3.149,3.706c-0.996,0-1.86-0.513-2.388-1.23v1.055H239.692z
				 M242.9,474.483c1.436,0,2.285-1.157,2.285-2.724c0-1.568-0.85-2.739-2.285-2.739c-0.864,0-1.728,0.527-2.109,1.143v3.208
				C241.171,473.986,242.036,474.483,242.9,474.483z"/>
			<path id="XMLID_28_" style="fill:#1D262D;" d="M247.528,477.061c0.161,0.073,0.425,0.117,0.601,0.117
				c0.483,0,0.805-0.161,1.055-0.747l0.469-1.069l-2.959-7.148h1.187l2.358,5.8l2.344-5.8h1.201l-3.545,8.51
				c-0.425,1.025-1.143,1.421-2.08,1.435c-0.234,0-0.601-0.044-0.805-0.103L247.528,477.061z"/>
		</g>
	</g>
	<g>
		<path style="fill:#EDEBEB;" d="M414.121,89.401c-29.478-41.92-72.933-32.493-97.684-20.443c-28.755,14-73.245,83-147.812,102.264
			C94.058,190.487,31.951,259.182,56.49,334.96c22.293,68.841,88.507,76.554,126.357,88.66h231.274V89.401z"/>
		<path style="fill:#CBC8C7;" d="M117.631,193.366h296.489v-1H119.207C118.678,192.694,118.157,193.032,117.631,193.366z"/>
		<path style="fill:#CBC8C7;" d="M274.475,149.991l0.502,0.002v-45.975c-0.332,0.315-0.666,0.631-1,0.947v44.024l-54.323-0.232
			c-0.533,0.333-1.069,0.663-1.606,0.993L274.475,149.991z"/>
		<g>
			<path style="fill:#CBC8C7;" d="M336.163,182.251c-13.085,0-23.729-10.645-23.729-23.729c0-13.084,10.645-23.729,23.729-23.729
				s23.729,10.645,23.729,23.729C359.892,171.605,349.248,182.251,336.163,182.251z M336.163,135.792
				c-12.533,0-22.729,10.196-22.729,22.729c0,12.533,10.196,22.729,22.729,22.729s22.729-10.196,22.729-22.729
				C358.892,145.988,348.696,135.792,336.163,135.792z"/>
		</g>
		<g>
			<g>
				<rect x="274.346" y="181.42" style="fill:#CBC8C7;" width="139.614" height="1"/>
			</g>
			<g>
				<path style="fill:#CBC8C7;" d="M379.674,182.368h-12.483v-52.039h12.483V182.368z M368.191,181.368h10.483v-50.039h-10.483
					V181.368z"/>
			</g>
			<g>
				<path style="fill:#CBC8C7;" d="M393.253,182.368h-12.483v-52.039h12.483V182.368z M381.769,181.368h10.483v-50.039h-10.483
					V181.368z"/>
			</g>
			<g>
				<path style="fill:#CBC8C7;" d="M400.707,182.204l-8.171-48.005l12.308-2.094l8.171,48.005L400.707,182.204z M393.69,135.017
					l7.835,46.033l10.335-1.759l-7.835-46.033L393.69,135.017z"/>
			</g>
		</g>
		<path style="fill:#679C93;" d="M91.121,365.458l9.711-0.553c2.935-5.022,5.336-10.374,7.039-15.447l-8.56-1.334l9.275-0.915
			c1.407-4.695,2.166-9.053,2.145-12.57l-8.039,0.32l7.999-1.586c-0.297-4.529-2.102-7.344-5.775-7.11
			c-0.891,0.057-1.736,0.228-2.556,0.459l1.332,3.371l-2.53-2.967c-14.488,5.747-17.597,38.498-18.259,51.675
			c1.114,1.105,2.244,2.183,3.393,3.225c4.932-3.604,9.413-8.912,13.153-14.842L91.121,365.458z"/>
		<path style="fill:#679C93;" d="M77.655,365.184c0,0,0.555-21.471-1.547-42.333l-7.77,11.641l7.301-15.902
			c-0.962-8.021-2.358-15.718-4.373-21.812l-7.574,5.18l5.836-9.672c-2.215-4.837-5.021-7.956-8.575-8.28
			c-3.844-0.351-6.06,2.521-7.056,7.447l5.795,2.005h-6.122c-0.643,5.092-0.26,11.856,0.816,19.334l10.972,4.243H55.056
			c1.155,6.734,2.791,13.875,4.687,20.791l8.594,3.799l-7.878-1.24c1.532,5.36,3.206,10.533,4.917,15.213
			c3.941,7.114,8.459,13.36,13.407,18.877L77.655,365.184z"/>
		<polygon style="fill:#7F7767;" points="263,248.75 247.978,410.247 219.005,411.437 211.057,249.901 		"/>
		<path style="fill:#191931;" d="M241.353,410.519c0,0,11.963,3.689,16.088,6.189s3.25,9.5-16.625,5.75
			s-13.235-11.939-13.235-11.939H241.353z"/>
		<g>
			
				<rect x="83.172" y="371.625" transform="matrix(0.2501 -0.9682 0.9682 0.2501 -264.4614 403.7892)" style="fill:#191931;" width="90.549" height="1.999"/>
		</g>
		<g>
			
				<rect x="353.17" y="326.862" transform="matrix(0.9617 -0.2741 0.2741 0.9617 -88.5593 111.3657)" style="fill:#191931;" width="2.001" height="91.346"/>
		</g>
		<path style="fill:#6C93FB;" d="M115.239,253.808c0,0-9.09-1.193-14.081,9.816c-3.969,8.755-7.572,68.083,57.762,67.583l1.916-9.5
			L115.239,253.808z"/>
		<path style="fill:#4678E7;" d="M159.258,329.532L159.258,329.532c-6.747-1.316-31.726-3.327-44.802-22.074
			c-12.932-18.54-5.818-46.786-5.818-46.786l4.38-6.809c-3.013,0.376-8.413,2.158-11.86,9.761c-3.944,8.7-7.515,67.33,56.551,67.575
			C158.273,330.596,158.791,330.038,159.258,329.532z"/>
		<path style="fill:#6C93FB;" d="M363.246,253.808c0,0,9.09-1.193,14.081,9.816c3.969,8.755,7.572,68.083-57.762,67.583l-1.916-9.5
			L363.246,253.808z"/>
		<path style="fill:#4678E7;" d="M319.227,329.532L319.227,329.532c6.747-1.316,31.726-3.327,44.802-22.074
			c12.932-18.54,5.818-46.786,5.818-46.786l-4.38-6.809c3.013,0.376,8.413,2.158,11.86,9.761c3.944,8.7,7.515,67.33-56.551,67.575
			C320.212,330.596,319.694,330.038,319.227,329.532z"/>
		<path style="fill:#679C93;" d="M211.691,125.958l-14.687,0.878c0,0-16.064-0.513-18.961,18.271
			c-2.897,18.784-8.828,89.525-8.828,89.525s-1.35,14.134,8.653,14.898c10.003,0.764,82.406-0.781,82.406-0.781
			s10.74,0.327,8.916-12.807c-1.414-10.181-10-92.966-10-92.966s-2.15-18.42-22.933-18.321L211.691,125.958z"/>
		<path style="fill:#7F7767;" d="M211.01,135.667c0,0,4.004,3.874,13.426,3.207c9.422-0.667,14.307-8.986,14.339-12.156
			c0.007-0.71-0.051-1.37-0.136-1.98c-0.769-0.052-1.556-0.088-2.383-0.084l-24.565,1.303l-8.164,0.488L211.01,135.667z"/>
		<path style="fill:#CF9B89;" d="M229.032,89.933c0,0,1.646-2.729,4.146-1.417c2.93,1.538,1.854,7.167-4.146,6.667V89.933z"/>
		<path style="fill:#EABFAD;" d="M207.793,126.191c0,0,0.431,9.113,13.405,9.756c10.505,0.52,15.472-7.143,15.058-11.291
			L207.793,126.191z"/>
		<path style="fill:#EABFAD;" d="M210.243,110.7c0,0,0.342,14.157-2.45,15.491l6.228,2.056l22.235-3.592l-5.835-14.493l-17.4-3.249
			L210.243,110.7z"/>
		<path style="fill:#553B8A;" d="M253.071,130.828c0,0,20.583,29.38,42.814,46.469l-9.36,24.994c0,0-14.707-6.488-26.77-16.577
			L253.071,130.828z"/>
		<path style="fill:#463374;" d="M259.754,185.714c3.501,2.928,7.224,5.551,10.747,7.802c-3.531-13.932-3.261-42.819-9.705-52.44
			c-2.094-3.126-3.946-5.104-3.946-5.104l-3.488-2.751L259.754,185.714z"/>
		<path style="fill:#553B8A;" d="M216.731,249.538c1.071-22.289,2.808-86.478-1.719-101.352
			c-4.273-14.039-6.562-18.936-6.282-22.051l-11.726,0.701c0,0-16.064-0.513-18.961,18.271c-2.897,18.784-8.828,89.525-8.828,89.525
			s-1.35,14.134,8.653,14.898C182.046,249.849,200.603,249.744,216.731,249.538z"/>
		<path style="fill:#463374;" d="M192.303,233.31c-7.991,5.029-21.537,3.416-27.594-8.033c-8.469,9.72-11.271,19.162,8.316,20.18
			c41.667,2.167,44.941-52.592,44.941-52.592l0.003-2.38C210.883,211.045,199.741,228.629,192.303,233.31z"/>
		<path style="fill:#2B1E45;" d="M269.896,288.918c0,0-13.552,7.87-13.295,32.788s-0.004,91.252-0.004,91.252h31.261l3.333-76.502
			l15-51.146L269.896,288.918z"/>
		<path style="fill:#1E162E;" d="M306.191,285.31l-11.613,1.154l-14.876,8.658c0,0-7.424,10.487-7.386,23.704
			c0.038,13.217,12.875,40.966,12.875,40.966l-0.993,53.167h3.66l3.333-76.502L306.191,285.31z"/>
		<path style="fill:#553B8A;" d="M180.512,137.139c0,0-17.321,45.748-18.821,71.659s19.723,31.365,30.612,24.513
			c10.888-6.852,29.721-41.352,32.133-72.364l-11.698-2.738c0,0-5.86,19.75-22.713,42.75
			C190.024,200.958,203.666,137.486,180.512,137.139z"/>
		<g>
			<g>
				<path style="fill:#372723;" d="M192.553,127.706c4.16,18.734,3.829,37.929-0.97,56.51c-0.081,0.312,0.402,0.445,0.482,0.133
					c4.817-18.648,5.145-37.974,0.97-56.776C192.965,127.259,192.483,127.392,192.553,127.706L192.553,127.706z"/>
			</g>
		</g>
		<g>
			<g>
				<path style="fill:#372723;" d="M191.217,198.988c6.948-13.661,15.07-26.679,22.018-40.341c0.146-0.286-0.286-0.54-0.432-0.252
					c-6.948,13.661-15.07,26.679-22.018,40.341C190.64,199.022,191.071,199.276,191.217,198.988L191.217,198.988z"/>
			</g>
		</g>
		<g>
			<g>
				<path style="fill:#372723;" d="M224.186,160.946c-1.468,11.16-4.243,21.956-8.277,32.462
					c-3.911,10.186-8.124,21.169-14.382,30.186c-6.715,9.675-19.961,18.249-31.499,10.899c-12.35-7.866-11.345-24.258-9.261-36.792
					c0.052-0.315-0.429-0.45-0.482-0.133c-1.947,11.708-3.024,25.376,6.056,34.567c7.866,7.962,19.781,6.47,28.08-0.023
					c9.929-7.769,14.732-21.082,19.447-32.315c5.261-12.532,9.044-25.358,10.818-38.851
					C224.727,160.628,224.227,160.631,224.186,160.946L224.186,160.946z"/>
			</g>
		</g>
		<path style="fill:#5E5B42;" d="M204.941,284.006c0,0,25.268,9.952,28.34,46.272c1.698,20.066,0.743,86.18,0.743,86.18h-32.167
			c0,0-0.554-69.75-8.486-85.5s-44.761-46.952-44.761-46.952H204.941z"/>
		<path style="fill:#4C4936;" d="M197.921,350.065c4.605-8.049,10.17-28.333,7.604-38.36c-2.667-10.42-10.984-16.559-10.984-16.559
			l-0.811-11.141h-40.943c1.137,2.066,2.471,4.476,3.95,7.127c11.318,10.155,31.074,28.782,36.635,39.825
			C195.286,334.76,196.77,341.712,197.921,350.065z"/>
		<path style="fill:#553B8A;" d="M269.189,235.943c-1.414-10.181-10-92.966-10-92.966s-2.15-18.42-22.933-18.321l0,0
			c0.484,3.356,0.929,11.421-0.654,19.803c-2.077,11,4.923,91.167,11.756,102.5c0.495,0.822,1.112,1.477,1.81,2.014
			c6.735-0.129,11.106-0.222,11.106-0.222S271.013,249.077,269.189,235.943z"/>
		<path style="fill:#EAAC29;" d="M129.726,280.384c-25.743,0-23.529-18.51-23.529-18.51s3.438-32.998,7.918-61.614
			c4.48-28.616,26.458-30.802,26.458-30.802h20.053h25.782c0,0,20.053,0,21.199,23.421c0.998,20.407,4.011,71.395,4.011,71.395
			s1.719,16.11-11.459,16.11H129.726z"/>
		<path style="fill:#7F7767;" d="M351.697,280.384c27.291,0,24.943-19.622,24.943-19.622s-3.644-34.981-8.394-65.317
			s-28.049-32.653-28.049-32.653H318.94h-27.332c0,0-21.258,0-22.473,24.828c-1.058,21.634-4.252,75.686-4.252,75.686
			s-1.822,17.078,12.147,17.078H351.697z"/>
		<path style="fill:#EABFAD;" d="M149.566,169.458c0,0,5.086,19,22.208,18.428c17.979-0.601,6.662-18.428,6.662-18.428H149.566z"/>
		<rect x="151.768" y="126.719" style="fill:#EABFAD;" width="22.29" height="29.247"/>
		<path style="fill:#EABFAD;" d="M174.058,126.719c0,0,9.852,28.588,0,29.247c-9.852,0.659-14.723-6.674-14.723-6.674
			L174.058,126.719z"/>
		<polygon style="fill:#EABFAD;" points="230.295,109.013 210.243,110.7 209.597,83.041 231.887,83.041 		"/>
		<path style="fill:#EABFAD;" d="M231.887,83.041c0,0,7.417,27.033-2.436,27.692c-9.852,0.659-14.723-6.674-14.723-6.674
			L231.887,83.041z"/>
		
			<rect x="302.355" y="120.227" transform="matrix(-1 -4.500545e-11 4.500545e-11 -1 626.9998 269.7008)" style="fill:#EABFAD;" width="22.29" height="29.247"/>
		<path style="fill:#EABFAD;" d="M302.355,120.227c0,0-9.852,28.588,0,29.247c9.852,0.659,14.723-6.674,14.723-6.674
			L302.355,120.227z"/>
		<g>
			<g>
				<path style="fill:#372723;" d="M111.926,214.452c0.322,0,0.322-0.5,0-0.5C111.604,213.952,111.603,214.452,111.926,214.452
					L111.926,214.452z"/>
			</g>
		</g>
		<g>
			<g>
				<path style="fill:#372723;" d="M159.941,335.208c0.322,0,0.322-0.5,0-0.5C159.619,334.708,159.619,335.208,159.941,335.208
					L159.941,335.208z"/>
			</g>
		</g>
		<g>
			<g>
				<path style="fill:#372723;" d="M159.73,334.96c-1.193,24.749-2.386,49.497-3.58,74.246c-0.016,0.322,0.485,0.321,0.5,0
					c1.193-24.749,2.386-49.497,3.58-74.246C160.245,334.638,159.745,334.639,159.73,334.96L159.73,334.96z"/>
			</g>
		</g>
		<g>
			<g>
				<path style="fill:#372723;" d="M163.193,289.134c17.023,10.139,29.48,26.361,34.882,45.425c0.088,0.309,0.57,0.178,0.482-0.133
					c-5.436-19.184-17.981-35.52-35.111-45.724C163.168,288.537,162.916,288.969,163.193,289.134L163.193,289.134z"/>
			</g>
		</g>
		<g>
			<g>
				<path style="fill:#372723;" d="M158.187,409.681c9.484,0.28,19.631,1.557,29.07,0.64c0.317-0.031,0.321-0.531,0-0.5
					c-9.44,0.917-19.586-0.36-29.07-0.64C157.865,409.171,157.866,409.671,158.187,409.681L158.187,409.681z"/>
			</g>
		</g>
		<path style="fill:#EABFAD;" d="M192.724,275.032c-5.845-2.136-56.22-15.05-56.22-15.05l2.393-19.336l-29.802-3.934
			c-1.784,14.477-2.898,25.162-2.898,25.162s-2.214,18.51,23.529,18.51h66.563C196.72,278.961,196.82,276.529,192.724,275.032z"/>
		<path style="fill:#EABFAD;" d="M212.94,235.243c0,0,2.32,32.965,1.223,37.965s-8.401,7.851-17.874,7.176l-49.723,0.098v-2.774
			c0,0,18.728-13.62,44.489-14.498c0,0,5.074-20.534,5.438-25.669C196.493,237.541,202.938,236.091,212.94,235.243z"/>
		<path style="fill:#EAAC29;" d="M207.84,197.504c0,0,4.117,27.78,9.422,35.742c0,0-6.3,4.462-20.769,4.295"/>
		<g>
			<g>
				<path style="fill:#372723;" d="M316.195,334.311c4.643,24.367,9.867,48.616,15.67,72.734c0.075,0.313,0.558,0.18,0.482-0.133
					c-5.803-24.117-11.027-48.366-15.67-72.734C316.617,333.863,316.135,333.996,316.195,334.311L316.195,334.311z"/>
			</g>
		</g>
		<polygon style="fill:#EABFAD;" points="298.049,162.791 295.885,174.208 327.233,162.791 		"/>
		<path style="fill:#2B1E45;" d="M356.816,284.006c0,0,5.708,31.452-32.279,41.327l20.279,91.125h-37.375
			c0,0-27.804-86.355-28.342-90.699c-2.891-23.348,21.592-41.754,21.592-41.754H356.816z"/>
		<path style="fill:#7F7767;" d="M271.288,176.996c0,0-2.347,5.212-3.722,11.962s-10.625,70.493-10.625,70.493
			s-3.375,17.507,11.125,21.031h15.125l-5-8.149L271.288,176.996z"/>
		<path style="fill:#EAAC29;" d="M112.825,208.798c0,0-4.39,21.262-9.47,28.366c0,0,18.086,7.211,38.336,4.99
			c0,0-1.115-6.541-0.5-12.154"/>
		<path style="fill:#D19825;" d="M193.728,190.617c0,0,6.275,13.841,6.987,23.462c0.506,6.843,1.015,4.252-2.985,21.164
			l-1.237,2.298c0,0,2.811-13.366,2.171-20.016C198.024,210.875,193.933,192.443,193.728,190.617z"/>
		<path style="fill:#D19825;" d="M136.504,259.981c0,0,17.937,1.727,29.52,5.643c0,0,14.793-4.979,22.417-5.643
			c0,0,7.229-22.523,8.052-22.44c0,0-1.199,9.547-5.438,25.669c0,0-12.461,0.209-23.975,4.478L136.504,259.981z"/>
		<g>
			<g>
				<path style="fill:#372723;" d="M193.324,189.866c1.545,7.743,3.389,15.496,4.509,23.312c1.26,8.793-0.269,17.204-2.158,25.797
					c-0.069,0.314,0.413,0.448,0.482,0.133c1.831-8.328,3.431-16.531,2.311-25.086c-1.066-8.146-3.055-16.237-4.662-24.289
					C193.744,189.418,193.262,189.552,193.324,189.866L193.324,189.866z"/>
			</g>
		</g>
		<path style="fill:#5E5B42;" d="M122.441,284.006c0,0-7.252,42.286,35.749,44.786c0,0-5.925,48.5-1.79,88.833h32.291
			c0,0,2.365-42.145,5.849-64.167c3.484-22.022,19.984-50.071-33.183-69.452H122.441z"/>
		<path style="fill:#7763A1;" d="M237.028,284.006h-0.454H125.191v1.763c0,0,26.296,11.313,111.61,9.671
			c85.314,1.642,111.61-9.671,111.61-9.671v-1.763H237.028z"/>
		<path style="fill:#4C4936;" d="M202.966,337.241c0,0,4.468,40.384,3.597,79.217h-4.705c0,0-0.532-39.708-3.849-67.854
			C198.008,348.604,201.074,337.024,202.966,337.241z"/>
		<path style="fill:#EABFAD;" d="M170.347,155.424L170.347,155.424l-15.156-3.299l-3.423,3.841c0,0,0.59,12.159-2.202,13.492
			l6.625,4l22.246-4C172.349,165.458,170.347,155.424,170.347,155.424z"/>
		<path style="fill:#191931;" d="M154.101,138.957c0,0,12.303-0.499,16.652-8.643c0,0,1.938,1.832,4.813,1.769
			c0,0,2.332-5.5-3.208-9.792c-5.534-4.286-10.25-4.711-17.5-3.333c-7.048,1.339-13.417,7.667-13.417,16.667
			s-0.958,17.051-4.937,24.109c-3.98,7.058-6.755,7.391-6.451,13.725c0,0,5.569-3.333,10.52-4h8.993c0,0,5.75-0.708,7-6.667
			c1.25-5.958-4.221-13.257-4.798-18.733C151.768,144.059,150.761,139.415,154.101,138.957z"/>
		<path style="fill:#EABFAD;" d="M154.101,138.957c0,0-1.646-2.729-4.146-1.417c-2.93,1.538-1.854,7.167,4.146,6.667V138.957z"/>
		<path style="fill:#191931;" d="M176.138,155.244c0,0,0.887,3.964,4.137,8.13s3.333,6.083,3.333,6.083h-5.171
			c0,0-5.369-2.818-7.97-13.492C170.466,155.966,174.944,156.093,176.138,155.244z"/>
		<g>
			<g>
				<path style="fill:#191931;" d="M151.272,144.349c0.621,2.151,1.97,3.585,3.132,5.439c2.291,3.655,3.003,8.8-0.361,12.114
					c-0.23,0.226,0.124,0.58,0.354,0.354c1.973-1.944,2.657-4.695,2.397-7.427c-0.407-4.281-3.903-6.674-5.04-10.613
					C151.665,143.907,151.182,144.039,151.272,144.349L151.272,144.349z"/>
			</g>
			<g>
				<path style="fill:#191931;" d="M141.977,132.029c-0.505,6.852-1.011,13.817-3.211,20.374c-1.657,4.937-4.848,9.161-4.58,14.549
					c0.016,0.32,0.516,0.322,0.5,0c-0.306-6.144,4.023-11.832,5.524-17.714c1.434-5.617,1.843-11.448,2.267-17.208
					C142.5,131.708,142,131.71,141.977,132.029L141.977,132.029z"/>
			</g>
			<g>
				<path style="fill:#191931;" d="M141.779,134.696c0.269,7.791-1.482,13.822-5.382,20.539c-2.746,4.73-5.063,9.263-4.431,14.869
					c0.036,0.316,0.536,0.32,0.5,0c-0.918-8.145,4.686-13.79,7.698-20.757c2.024-4.68,2.288-9.618,2.115-14.65
					C142.268,134.375,141.768,134.374,141.779,134.696L141.779,134.696z"/>
			</g>
			<g>
				<path style="fill:#191931;" d="M170.442,129.112c-0.408,2.862-1.797,5.818-4.43,7.257c-2.31,1.262-5.033,1.287-7.594,1.332
					c-0.321,0.006-0.322,0.506,0,0.5c2.87-0.05,5.981-0.119,8.462-1.767c2.367-1.572,3.656-4.459,4.045-7.189
					C170.969,128.93,170.487,128.794,170.442,129.112L170.442,129.112z"/>
			</g>
		</g>
		<path style="fill:#191931;" d="M176.637,154.777c-0.123,0.129-0.246,0.258-0.384,0.367c1.854,4.42,6.544,7.909,5.666,13.078
			c-0.054,0.315,0.428,0.45,0.482,0.133C183.326,162.914,178.447,159.436,176.637,154.777z"/>
		<path style="fill:#CF9B89;" d="M170.466,155.966c0,0-3.15,0.006-7.275-1.188c0,0,3.859,8.569,10.867,9.969
			C174.058,164.746,171.988,162.005,170.466,155.966z"/>
		<g>
			<path style="fill:#191931;" d="M147.205,124.065c0.032-0.809-0.705-1.556-1.619-1.805c-0.914-0.249-1.945-0.053-2.75,0.39
				c-0.804,0.443-1.405,1.109-1.865,1.819c-1.167,1.802-1.498,3.975-0.91,5.966c0.209,0.709,0.607,1.464,1.407,1.746
				c0.886,0.313,1.907-0.084,2.634-0.612c1.195-0.868,1.972-2.088,2.417-3.362s0.578-2.61,0.654-3.937"/>
		</g>
		<path style="fill:#A2222B;" d="M146.316,169.458c0.063,0,0.833,12.5,13.917,20c14.545,8.338,26.333-0.042,24.197-9.925
			c-1.647-7.62-4.614-10.075-4.614-10.075H146.316z"/>
		<path style="fill:#EABFAD;" d="M149.566,169.458c0,0,5.086,19,22.208,18.428c17.979-0.601,6.662-18.428,6.662-18.428
			l-12.938-0.922L149.566,169.458z"/>
		<path style="fill:#4C4936;" d="M158.19,328.791c0,0-3.124-3.208-3.374-5.896c0,0-7.253,5.129-22.595-4.154
			C132.221,318.742,140.064,328.125,158.19,328.791z"/>
		<polygon style="fill:#D19825;" points="141.886,215.34 140.234,260.806 136.504,259.981 		"/>
		<g>
			<g>
				<path style="fill:#372723;" d="M133.935,259.693c10.282,2.168,20.464,4.753,30.592,7.548c4.912,1.355,9.811,2.754,14.708,4.162
					c2.563,0.737,18.002,3.714,16.736,7.871c-0.094,0.309,0.388,0.44,0.482,0.133c0.863-2.833-1.349-3.735-3.663-4.617
					c-6.058-2.308-12.696-3.671-18.932-5.448c-13.168-3.752-26.388-7.307-39.79-10.132
					C133.754,259.144,133.62,259.626,133.935,259.693L133.935,259.693z"/>
			</g>
		</g>
		<path style="fill:#191931;" d="M324.645,126.728c0,0-5.245,2.918-6.266-2.957c0,0-5.903,4.447-17.795,2.317l-0.594,2.273
			c0,0-6.173-5.215-2.423-11.653s17.313,0.438,21.688,1.063c0,0,2.247-1.287,5.063-0.313c3.25,1.125,6.47,4.063,0.329,23.062
			V126.728z"/>
		<path style="fill:#EABFAD;" d="M322.722,128.341c0,0,1.646-2.729,4.146-1.417c2.93,1.538,1.854,7.167-4.146,6.667V128.341z"/>
		<g>
			<path style="fill:#191931;" d="M318.31,123.052c-2.27,7.268-12.592,3.231-17.563,2.128c-0.314-0.07-0.417,0.208-0.102,0.277
				c5.119,1.135,15.777,5.318,18.147-2.273C318.888,122.877,318.405,122.746,318.31,123.052L318.31,123.052z"/>
		</g>
		<g>
			<path style="fill:#191931;" d="M317.043,122.836c-0.179,0.583-0.355,1.241-0.691,1.759c-0.765,1.178-1.877,1.303-3.15,1.369
				c-1.827,0.095-3.589,0.049-5.284-0.736c-0.29-0.134-0.544,0.297-0.252,0.432c2.053,0.951,5.015,0.861,7.229,0.377
				c1.778-0.389,2.136-1.453,2.631-3.067C317.62,122.661,317.138,122.529,317.043,122.836L317.043,122.836z"/>
		</g>
		<g>
			<path style="fill:#191931;" d="M297.988,118.206c-1.321,1.198-2.647,3.243-2.284,5.135c0.396,2.061,2.739,2.477,4.469,2.643
				c0.319,0.031,0.396-0.463,0.075-0.494c-1.646-0.158-4.024-0.314-4.179-2.365c-0.129-1.709,0.979-3.395,2.215-4.516
				C298.521,118.394,298.226,117.99,297.988,118.206L297.988,118.206z"/>
		</g>
		<path style="fill:#EABFAD;" d="M324.645,149.474l-3.423-3.841l-16.035,3.49c0,0-1.217,8.439-7.138,13.668l20.351,2.333
			l8.833-2.333C324.441,161.458,324.645,149.474,324.645,149.474z"/>
		<path style="fill:#CF9B89;" d="M305.126,149.474c0,0,6.727-0.6,10.584-5.058c0,0,0.009,13.271-17.661,18.375
			C298.049,162.791,303.035,159.052,305.126,149.474z"/>
		<path style="fill:#898378;" d="M327.233,162.791l-31.348,11.417l6.257,10.074l29.924-21.491
			C332.066,162.791,329.087,161.937,327.233,162.791z"/>
		<path style="fill:#898378;" d="M295.885,174.208l-10.843,4.243l12.233-17.506c0,0,0.712-1.065,3.356-0.985
			c0,0-1.141,2.247-2.582,2.83L295.885,174.208z"/>
		<path style="fill:#898378;" d="M325.433,159.274c0,0,7.071-0.091,6.633,3.517l-4.833,0
			C327.233,162.791,325.903,162.241,325.433,159.274z"/>
		<path style="fill:#726B5E;" d="M328.847,162.427c0,0-0.995,0.057-1.615,0.365c0,0-0.807-0.308-1.362-1.821
			C325.871,160.971,329.41,161.005,328.847,162.427z"/>
		<path style="fill:#726B5E;" d="M298.049,162.791c0,0,0.303-1.089,1.41-1.107C299.459,161.684,298.74,162.562,298.049,162.791z"/>
		<path style="fill:#726B5E;" d="M295.002,215.937c0,0,5.522,39.568,26.855,64.545l11.921-0.116
			C333.779,280.366,307.813,254.25,295.002,215.937z"/>
		<g>
			<g>
				<path style="fill:#372723;" d="M333.956,280.189c-17.465-18.624-30.685-40.665-38.889-64.842
					c-0.103-0.303-0.586-0.173-0.482,0.133c8.228,24.25,21.501,46.384,39.017,65.063
					C333.823,280.778,334.176,280.424,333.956,280.189L333.956,280.189z"/>
			</g>
		</g>
		<path style="fill:#726B5E;" d="M339.27,215.413c0,0-0.468,21.055-3.107,21.133l5.486,2.578c0,0-0.5-0.458-0.583-1.125
			S339.27,216.208,339.27,215.413z"/>
		<g>
			<g>
				<path style="fill:#372723;" d="M301.965,211.516c18.578,18.866,42.257,31.858,68.152,37.384
					c0.314,0.067,0.448-0.415,0.133-0.482c-25.82-5.51-49.408-18.443-67.932-37.255
					C302.093,210.933,301.739,211.286,301.965,211.516L301.965,211.516z"/>
			</g>
		</g>
		<g>
			<g>
				<path style="fill:#372723;" d="M339.02,214.618c0.665,8.086,1.33,16.172,1.995,24.257c0.026,0.318,0.526,0.321,0.5,0
					c-0.665-8.086-1.33-16.172-1.995-24.257C339.493,214.3,338.993,214.297,339.02,214.618L339.02,214.618z"/>
			</g>
		</g>
		<g>
			<g>
				<path style="fill:#372723;" d="M338.332,199.294c-0.793-10.513-1.774-26.825,6.84-34.677c0.238-0.217-0.116-0.57-0.354-0.354
					c-8.707,7.937-7.779,24.519-6.987,35.031C337.856,199.613,338.356,199.616,338.332,199.294L338.332,199.294z"/>
			</g>
		</g>
		<polygon style="fill:#726B5E;" points="285.042,178.451 289.254,179.458 295.885,174.208 		"/>
		<polygon style="fill:#726B5E;" points="295.885,174.208 300.631,184.067 302.142,184.282 		"/>
		<path style="fill:#726B5E;" d="M302.142,184.282"/>
		<path style="fill:#726B5E;" d="M302.142,184.282c0,0,15.549-10.158,22.049-13.408s10.308-6.333,11.438-8.083l-3.563,0
			L302.142,184.282z"/>
		<path style="fill:#726B5E;" d="M274.346,173.347c0,0-2.092,5.01-3.842,13.467s-6.313,47.311-6.313,47.311l3.93,0.75
			c0,0,2.537-34.452,3.178-40.851S274.346,173.347,274.346,173.347z"/>
		<g>
			<g>
				<path style="fill:#372723;" d="M268.371,233.499c1.019-20.365,3.153-40.775,6.348-60.912c0.05-0.315-0.432-0.45-0.482-0.133
					c-3.202,20.184-5.345,40.633-6.366,61.045C267.855,233.821,268.355,233.82,268.371,233.499L268.371,233.499z"/>
			</g>
		</g>
		<path style="fill:#CBC8C7;" d="M271.451,277.313h-64.14c-1.216,0-2.203-0.986-2.203-2.203l-4.705-42.909
			c0-1.216,0.986-2.203,2.203-2.203h64.14c1.216,0,2.203,0.986,2.203,2.203l4.705,42.909
			C273.653,276.327,272.667,277.313,271.451,277.313z"/>
		<g>
			<g>
				<path style="fill:#372723;" d="M257.329,137.576c2.923,9.566,3.208,19.702,4.218,29.607c0.743,7.292,1.585,14.579,2.223,21.881
					c0.028,0.318,0.528,0.321,0.5,0c-0.668-7.643-1.551-15.27-2.328-22.903c-0.98-9.637-1.284-19.399-4.131-28.718
					C257.718,137.137,257.235,137.267,257.329,137.576L257.329,137.576z"/>
			</g>
		</g>
		<g>
			<path style="fill:#372723;" d="M292.79,180.993c-0.069,0.277-0.014,0.505,0.214,0.688c0.081,0.066,0.207,0.107,0.303,0.039
				c0.351-0.246,0.303-0.805-0.15-0.904c-0.12-0.026-0.212,0.021-0.282,0.115c-0.205,0.275-0.104,0.643,0.194,0.798
				c0.092,0.048,0.23,0.048,0.303-0.039c0.264-0.316,0.267-0.68-0.006-0.994c-0.081,0.139-0.162,0.279-0.243,0.418
				c0.013,0.002,0.027,0.004,0.04,0.006c0.313-0.033,0.328-0.508,0-0.5c-0.639,0.015-0.892,0.937-0.228,1.156
				c0.662,0.218,1.105-0.569,0.707-1.081c-0.409-0.525-1.29-0.21-1.346,0.434c-0.056,0.639,0.788,1.048,1.267,0.63
				c0.436-0.382,0.222-1.187-0.327-1.335c-0.632-0.17-1.198,0.61-0.88,1.17c0.31,0.548,1.208,0.482,1.457-0.082
				c0.275-0.622-0.375-1.358-1.023-1.135c-0.719,0.248-0.714,1.345,0.112,1.405c0.732,0.053,0.832-1.013,0.167-1.199
				c-0.31-0.087-0.443,0.396-0.133,0.482c-0.075,0.366-0.041,0.287,0.103-0.235c0.215,0.052,0.328,0.181,0.34,0.387
				c-0.059,0.547-0.936,0.115-0.505-0.229c0.349-0.278,0.634,0.332,0.215,0.442c-0.256-0.015-0.306-0.17-0.148-0.463
				c0.421,0.191,0.495,0.242,0.223,0.153c0-0.167,0-0.333,0-0.5c-0.793,0.083-0.947,1.249-0.07,1.312
				c0.833,0.06,0.895-1.084,0.163-1.3c-0.254-0.075-0.399,0.238-0.243,0.418c0.002,0.096,0.004,0.191,0.006,0.287
				c0.101-0.013,0.202-0.026,0.303-0.039c-0.005-0.038-0.01-0.076-0.015-0.114c-0.094,0.038-0.188,0.077-0.282,0.115
				c0.01-0.003,0.02-0.007,0.03-0.01c0.101,0.013,0.202,0.026,0.303,0.039c-0.028-0.067-0.057-0.135-0.085-0.202
				C293.35,180.814,292.868,180.68,292.79,180.993L292.79,180.993z"/>
		</g>
		<g>
			<path style="fill:#372723;" d="M291.984,185.598c-0.069,0.277-0.014,0.505,0.214,0.688c0.081,0.066,0.207,0.107,0.303,0.039
				c0.351-0.246,0.303-0.805-0.15-0.904c-0.12-0.026-0.212,0.021-0.282,0.115c-0.205,0.275-0.104,0.643,0.194,0.798
				c0.092,0.048,0.23,0.048,0.303-0.039c0.264-0.316,0.267-0.68-0.006-0.994c-0.081,0.139-0.162,0.279-0.243,0.418
				c0.013,0.002,0.027,0.004,0.04,0.006c0.313-0.033,0.328-0.508,0-0.5c-0.639,0.015-0.892,0.937-0.228,1.156
				c0.662,0.218,1.105-0.569,0.707-1.081c-0.409-0.525-1.29-0.21-1.346,0.434c-0.056,0.639,0.788,1.048,1.267,0.63
				c0.436-0.382,0.222-1.187-0.327-1.335c-0.632-0.17-1.198,0.61-0.88,1.17c0.31,0.548,1.208,0.482,1.457-0.082
				c0.275-0.622-0.375-1.358-1.023-1.135c-0.719,0.248-0.714,1.345,0.112,1.405c0.732,0.053,0.832-1.013,0.167-1.199
				c-0.31-0.087-0.443,0.396-0.133,0.482c-0.075,0.366-0.041,0.287,0.103-0.235c0.215,0.052,0.328,0.181,0.34,0.387
				c-0.059,0.547-0.936,0.115-0.505-0.229c0.349-0.278,0.634,0.332,0.215,0.442c-0.256-0.015-0.306-0.17-0.148-0.463
				c0.421,0.191,0.495,0.242,0.223,0.153c0-0.167,0-0.333,0-0.5c-0.793,0.083-0.947,1.248-0.07,1.312
				c0.833,0.06,0.895-1.084,0.163-1.3c-0.254-0.075-0.399,0.238-0.243,0.418c0.002,0.096,0.004,0.191,0.006,0.287
				c0.101-0.013,0.202-0.026,0.303-0.039c-0.005-0.038-0.01-0.076-0.015-0.114c-0.094,0.038-0.188,0.077-0.282,0.115
				c0.01-0.003,0.02-0.007,0.03-0.01c0.101,0.013,0.202,0.026,0.303,0.039c-0.028-0.067-0.057-0.135-0.085-0.202
				C292.544,185.419,292.062,185.286,291.984,185.598L291.984,185.598z"/>
		</g>
		<path style="fill:#553B8A;" d="M209.219,123.376c0,0-4.235,0.123-4.674,3.009l3.062,0.636l1.123-0.886
			C208.731,126.135,208.894,124.211,209.219,123.376z"/>
		<path style="fill:#553B8A;" d="M235.437,122.622c0,0,1.3,2.761,1.121,5.017l3.314-2.802
			C239.871,124.838,239.095,122.597,235.437,122.622z"/>
		<path style="fill:#463374;" d="M204.546,126.385c0,0-0.587,7.655,10.467,21.801l0.12,0.413c0,0-11.941-7.889-13.122-22.063
			L204.546,126.385z"/>
		<path style="fill:#463374;" d="M239.871,124.838c0,0,2.812,9.794-4.434,21.02l-0.072,0.64c0,0,9.542-6.892,7.809-21.091
			C243.174,125.406,241.587,124.988,239.871,124.838z"/>
		<path style="fill:#D9D9D9;" d="M238.635,251.575c-0.385-2.477-2.529-4.201-4.79-3.85c-0.037,0.006-0.069,0.022-0.106,0.029
			c-0.018,1.125-0.457,3.14-3.26,3.452c-0.096,0.524-0.119,1.075-0.031,1.64c0.385,2.477,2.529,4.201,4.79,3.85
			C237.499,256.345,239.02,254.052,238.635,251.575z"/>
		<path style="fill:#191931;" d="M212.453,90.35c0,0,2.496-1.517,2.68-3.767c0,0,6.725,4.949,12.434,3.767s4.773-5.522,4.773-5.522
			l0.821,3.748c0,0,3.405-4.118,1.406-7.618c-1.999-3.5-6.708-5-12.541-5c-5.833,0-8.958,2.25-8.958,2.25s-7.143,0.825-4.759,10.725
			c0,0-1.675,9.653,1.748,13.733c0,0,0.304-3.499,0.001-7.229C210.056,95.438,210.089,91.054,212.453,90.35z"/>
		<path style="fill:#191931;" d="M213.722,78.739c0,0-1.07-0.875-1.27-1.938c0,0-0.168,0.969,0.207,1.938
			S213.722,78.739,213.722,78.739z"/>
		<path style="fill:#191931;" d="M213.069,78.614c0,0-2.003-0.406-2.471-1.813c0,0-0.125,1.705,0.938,2.368
			C212.597,79.833,213.069,78.614,213.069,78.614z"/>
		<path style="fill:#CF9B89;" d="M230.566,110.524c0,0-10,2.778-14.667-3.784c0,0,3.094,10.499,9.542,9.844
			c5.333-0.542,5.513-5.097,5.513-5.097L230.566,110.524z"/>
		<path style="fill:#CF9B89;" d="M108.638,240.452c0,0,11.769,6.081,29.786,5.45l0.441-3.497c0,0-11.736,1.499-30.045-3.447
			L108.638,240.452z"/>
		<g>
			<g>
				<path style="fill:#372723;" d="M141.85,213.199c-1.555,15.608-3.345,31.191-5.587,46.716c-0.045,0.315,0.436,0.451,0.482,0.133
					c2.248-15.569,4.046-31.197,5.605-46.849C142.382,212.879,141.881,212.881,141.85,213.199L141.85,213.199z"/>
			</g>
		</g>
		<path style="fill:#191931;" d="M213.722,88.576c0,0,0.219,10.049,2.177,12.965c1.958,2.917,14.197,6.17,18.661-0.332
			c0,0,1.339,4.373-1.07,8.064c-1.91,2.927-8.078,3.309-10.064,2.746s-7.386-1.875-9.11-8.813c-1.725-6.938-1.953-13.75-1.953-13.75
			L213.722,88.576z"/>
		<path style="fill:#191931;" d="M214.728,102.833c0,0-0.037,1.833-0.371,2.583c0,0,0.591-0.75,0.775-1.292
			C215.316,103.583,214.728,102.833,214.728,102.833z"/>
		<path style="fill:#191931;" d="M214.358,102.187c0,0-0.021,1.458-0.229,1.938c0,0,0.554-0.854,0.6-1.292
			S214.358,102.187,214.358,102.187z"/>
		<g>
			<g>
				<path style="fill:#191931;" d="M222.26,97.624c-2.005,0-3.636-1.631-3.636-3.636s1.631-3.636,3.636-3.636
					s3.637,1.631,3.637,3.636S224.265,97.624,222.26,97.624z M222.26,91.101c-1.591,0-2.886,1.295-2.886,2.886
					s1.295,2.886,2.886,2.886c1.592,0,2.887-1.295,2.887-2.886S223.852,91.101,222.26,91.101z"/>
			</g>
			<g>
				<path style="fill:#191931;" d="M231.127,96.723c-1.919,0-3.48-1.562-3.48-3.481s1.562-3.481,3.48-3.481
					c1.92,0,3.481,1.562,3.481,3.481S233.047,96.723,231.127,96.723z M231.127,90.511c-1.506,0-2.73,1.225-2.73,2.731
					s1.225,2.731,2.73,2.731s2.731-1.225,2.731-2.731S232.632,90.511,231.127,90.511z"/>
			</g>
			<g>
				<path style="fill:#191931;" d="M225.55,93.413l-0.467-0.587c0.512-0.409,1.826-0.961,3.147-0.125l-0.402,0.634
					C226.64,92.58,225.595,93.378,225.55,93.413z"/>
			</g>
			<g>
				<path style="fill:#191931;" d="M218.8,93.56c-0.052-0.033-5.251-3.273-7.62-3.884l0.188-0.727
					c2.48,0.64,7.613,3.839,7.831,3.975L218.8,93.56z"/>
			</g>
		</g>
		<path style="fill:#EABFAD;" d="M212.453,90.35c0,0-1.646-2.729-4.146-1.417c-2.93,1.538-1.854,7.167,4.146,6.667V90.35z"/>
		<path style="fill:#1E162E;" d="M324.537,325.333c0,0-0.68-3.792,0.654-5.792c0,0,0.992,3.818,11.996,0.992
			C337.187,320.534,331.977,323.614,324.537,325.333z"/>
		<g>
			
				<ellipse transform="matrix(0.9847 -0.174 0.174 0.9847 -21.8873 30.967)" style="fill:#191931;" cx="165.691" cy="140.328" rx="0.49" ry="0.656"/>
			
				<ellipse transform="matrix(0.9847 -0.174 0.174 0.9847 -21.3668 32.6511)" style="fill:#191931;" cx="175.557" cy="138.201" rx="0.49" ry="0.656"/>
			<path style="fill:#DA8A7B;" d="M171.64,139.677c0,0,1.018,2.716,2.328,3.492c1.309,0.776-0.097,1.891-1.164,2.037
				C171.737,145.351,170.961,139.628,171.64,139.677z"/>
		</g>
		<g>
			
				<ellipse transform="matrix(0.0337 -0.9994 0.9994 0.0337 168.0859 439.6745)" style="fill:#191931;" cx="311.41" cy="132.916" rx="0.656" ry="0.49"/>
			
				<ellipse transform="matrix(0.0337 -0.9994 0.9994 0.0337 159.0741 428.9198)" style="fill:#191931;" cx="301.343" cy="132.198" rx="0.656" ry="0.49"/>
			<path style="fill:#DA8A7B;" d="M305.429,133.108c0,0-0.626,2.832-1.813,3.785c-1.187,0.952,0.362,1.859,1.439,1.853
				S306.095,132.964,305.429,133.108z"/>
		</g>
		
			<ellipse transform="matrix(0.9994 -0.0337 0.0337 0.9994 -3.057 7.5667)" style="fill:#191931;" cx="223.157" cy="94.559" rx="0.49" ry="0.656"/>
		
			<ellipse transform="matrix(0.9994 -0.0337 0.0337 0.9994 -3.0408 7.8455)" style="fill:#191931;" cx="231.444" cy="94.215" rx="0.49" ry="0.656"/>
		<g>
			<path style="fill:#191931;" d="M171.798,150.066c-0.143,0-0.291-0.01-0.447-0.031c-2.418-0.329-2.446-2.756-2.446-2.78v-0.673
				l0.439,0.51c0.066,0.076,1.654,1.863,4.778,0.964l0.52-0.149l-0.223,0.493C174.411,148.417,173.642,150.066,171.798,150.066z
				 M169.506,147.897c0.174,0.614,0.644,1.47,1.913,1.643c1.133,0.154,1.849-0.406,2.22-0.853
				C171.59,149.089,170.209,148.409,169.506,147.897z"/>
		</g>
		<g>
			<path style="fill:#191931;" d="M303.999,144.063c-0.708,0-1.198-0.11-1.212-0.114l0.114-0.486c0.147,0.034,3.593,0.8,5.212-2.165
				l0.439,0.239C307.38,143.683,305.313,144.063,303.999,144.063z"/>
		</g>
		<path style="fill:#DA8A7B;" d="M225.594,98.237c0,0,0.504-0.84,1.7-0.967s1.737,0.627,1.737,0.627s-0.348,0.519-1.402,0.701
			C226.575,98.779,225.594,98.237,225.594,98.237z"/>
		<g>
			<path style="fill:#191931;" d="M226.127,104.01c-0.313,0-0.653-0.052-1.021-0.177c-1.193-0.407-1.765-1.099-1.852-2.242
				l-0.042-0.547l0.44,0.327c0.022,0.016,2.215,1.623,4.578,1.018l0.637-0.163l-0.368,0.545
				C228.489,102.787,227.641,104.01,226.127,104.01z M223.846,102.089c0.185,0.615,0.626,0.999,1.421,1.27
				c1.047,0.358,1.83,0.006,2.301-0.351C225.968,103.151,224.559,102.501,223.846,102.089z"/>
		</g>
		<path style="fill:#CF9B89;" d="M211.831,95.629c0,0-0.091,2.267-1.647,2.58l-0.128-2.77
			C210.056,95.438,211.017,95.705,211.831,95.629z"/>
		<path style="fill:#CF9B89;" d="M322.722,133.591c0,0,0.048,3.592,1.923,4.561v-4.624
			C324.645,133.529,323.605,133.719,322.722,133.591z"/>
		<g>
			<g>
				<path style="fill:#372723;" d="M195.031,276.935c5.629,1.764,12.178-0.429,17.134,3.387c0.255,0.196,0.504-0.238,0.252-0.432
					c-5.017-3.863-11.578-1.658-17.254-3.437C194.856,276.357,194.724,276.839,195.031,276.935L195.031,276.935z"/>
			</g>
		</g>
		<g>
			<g>
				<path style="fill:#372723;" d="M196.357,277.35c5.474,0.196,11.405-1.681,15.629,2.803c0.221,0.235,0.574-0.119,0.354-0.354
					c-4.357-4.625-10.291-2.745-15.983-2.949C196.036,276.839,196.036,277.339,196.357,277.35L196.357,277.35z"/>
			</g>
		</g>
		<path style="fill:#CBC8C7;" d="M281.998,280.482h-73.493c-0.659,0-1.193-0.534-1.193-1.193v-0.782
			c0-0.659,0.534-1.193,1.193-1.193h73.493c0.659,0,1.193,0.534,1.193,1.193v0.782C283.191,279.948,282.657,280.482,281.998,280.482
			z"/>
		<path style="fill:#D9D9D9;" d="M205.108,275.111c0,1.216,0.986,2.203,2.203,2.203h64.14c1.216,0,2.203-0.986,2.203-2.203
			l-0.777-7.085L201.7,244.031L205.108,275.111z"/>
		<path style="fill:#CBC8C7;" d="M230.704,253.808c0.72,1.942,2.581,3.19,4.534,2.887c0.658-0.102,1.241-0.383,1.745-0.77
			L230.704,253.808z"/>
		<path style="fill:#8E8A87;" d="M283.191,279.289v-0.782c0-0.659-0.534-1.193-1.193-1.193h-73.493
			c-0.659,0-1.193,0.534-1.193,1.193v0.045h67.974c1.094,0.031,0.997,0.938,0.997,0.938v0.877l0.058,0.116h5.658
			C282.657,280.482,283.191,279.948,283.191,279.289z"/>
		<g>
			<g>
				<path style="fill:#372723;" d="M208.504,277.563c20.982,0,41.964,0,62.946,0c0.322,0,0.322-0.5,0-0.5
					c-20.982,0-41.964,0-62.946,0C208.183,277.063,208.182,277.563,208.504,277.563L208.504,277.563z"/>
			</g>
		</g>
		<path style="fill:#EABFAD;" d="M298.484,213.331l-3.144,1.73c0,0-0.294,0.279-0.831-0.307s-2.485-1.712-2.659-4.071
			c-0.121-1.641,1.357-2.77,2.232-3.332c0,0-0.332-1.529,1.404-1.421c0,0-0.565-0.958-0.586-1.284c0,0-0.184-0.162-0.537-0.217
			s-3.14-0.39-3.679-1.39c-0.54-1,1.179-0.393,2.507-0.407c1.328-0.014,2.453-0.339,2.453-0.339s4.093,2.863,4.29,2.949
			s1.975,0.612,2.327,1.931s-0.273,2.678-0.273,2.678s-0.063,1.469-0.203,1.656S298.484,213.331,298.484,213.331z"/>
		<g>
			<g>
				<path style="fill:#372723;" d="M294.952,215.629c2.391-1.442,4.924-2.632,7.316-4.074c0.275-0.166,0.024-0.598-0.252-0.432
					c-2.391,1.442-4.924,2.632-7.316,4.074C294.425,215.363,294.676,215.796,294.952,215.629L294.952,215.629z"/>
			</g>
		</g>
		<g>
			<g>
				<path style="fill:#372723;" d="M302.17,211.406c0.789-4.67-2.932-7.208-6.558-9.285c-0.28-0.16-0.532,0.272-0.252,0.432
					c3.358,1.923,7.074,4.304,6.328,8.72C301.634,211.587,302.116,211.723,302.17,211.406L302.17,211.406z"/>
			</g>
		</g>
		<g>
			<g>
				<path style="fill:#372723;" d="M295.419,202.096c-0.84,0.202-1.691,0.31-2.553,0.345c-0.699,0.028-1.433-0.095-2.122-0.027
					c-0.082,0.008-0.179,0.04-0.216,0.124c-0.284,0.634,0.54,1.168,1.026,1.425c0.997,0.528,2.14,0.626,3.228,0.841
					c0.314,0.062,0.449-0.42,0.133-0.482c-0.752-0.149-1.514-0.231-2.25-0.457c-0.336-0.103-0.677-0.221-0.982-0.398
					c-0.223-0.124-0.419-0.28-0.587-0.468c-0.339-0.106-0.321-0.131,0.053-0.074c0.715-0.07,1.471,0.043,2.196-0.008
					c0.745-0.053,1.48-0.163,2.207-0.338C295.865,202.503,295.733,202.021,295.419,202.096L295.419,202.096z"/>
			</g>
		</g>
		<g>
			<g>
				<path style="fill:#372723;" d="M294.607,204.629c0.257,0.631,0.599,1.193,1.048,1.706c0.212,0.243,0.565-0.112,0.354-0.354
					c-0.389-0.445-0.696-0.938-0.919-1.485C294.97,204.202,294.486,204.331,294.607,204.629L294.607,204.629z"/>
			</g>
		</g>
		<g>
			<g>
				<path style="fill:#372723;" d="M295.974,205.924c-1.031-0.617-2.281,0.088-2.268,1.293c0.003,0.322,0.503,0.322,0.5,0
					c-0.009-0.824,0.805-1.287,1.516-0.862C295.998,206.521,296.25,206.089,295.974,205.924L295.974,205.924z"/>
			</g>
		</g>
		<g>
			<g>
				<path style="fill:#372723;" d="M299.584,205.407c0.942,0.396,2.036,0.853,2.419,1.886c0.299,0.807,0.06,1.888-0.194,2.692
					c-0.097,0.308,0.386,0.439,0.482,0.133c0.301-0.954,0.567-2.255,0.109-3.192c-0.524-1.074-1.642-1.563-2.684-2.001
					C299.421,204.801,299.291,205.284,299.584,205.407L299.584,205.407z"/>
			</g>
		</g>
		<path style="fill:#EABFAD;" d="M215.299,158.887c0,0-0.297-5.126-1.057-6.284c0,0,1.281,0.894,1.625,1.378
			c0,0,0.3,0.196,0.344-0.432c0.045-0.629,0.076-6.768-0.077-7.623c0,0,1.535,1.519,2.035,5.498l0.221,0.144
			c0,0,1.17-0.844,1.967,0.684c0,0,1.421-0.872,2.244,0.234c0,0,1.248-0.578,2.118,0.152c0.87,0.73,0.842,1.573,0.842,1.573
			s1.929,3.027-2.362,6.505L215.299,158.887z"/>
		<g>
			<g>
				<path style="fill:#372723;" d="M212.953,158.762c3.84,0.651,7.577,1.774,11.416,2.424c0.315,0.053,0.45-0.428,0.133-0.482
					c-3.84-0.651-7.577-1.774-11.416-2.424C212.771,158.227,212.636,158.709,212.953,158.762L212.953,158.762z"/>
			</g>
		</g>
		<g>
			<g>
				<path style="fill:#372723;" d="M215.54,158.834c-0.528-2.117-0.006-4.363-1.082-6.344c-0.114,0.114-0.228,0.228-0.342,0.342
					c0.661,0.455,1.234,0.963,1.768,1.556c0.216,0.24,0.568-0.115,0.354-0.354c-0.567-0.629-1.173-1.156-1.869-1.635
					c-0.217-0.149-0.454,0.136-0.342,0.342c1.041,1.917,0.519,4.169,1.031,6.225C215.136,159.279,215.618,159.147,215.54,158.834
					L215.54,158.834z"/>
			</g>
		</g>
		<g>
			<g>
				<path style="fill:#372723;" d="M216.413,154.08c0.258-2.773,0.089-5.545-0.036-8.32c-0.142,0.059-0.285,0.118-0.427,0.177
					c1.345,1.574,1.635,3.921,2.048,5.888c0.066,0.315,0.548,0.182,0.482-0.133c-0.439-2.089-0.748-4.435-2.177-6.108
					c-0.14-0.164-0.436-0.032-0.427,0.177c0.125,2.775,0.294,5.547,0.036,8.32C215.883,154.401,216.383,154.399,216.413,154.08
					L216.413,154.08z"/>
			</g>
		</g>
		<g>
			<g>
				<path style="fill:#372723;" d="M218.462,151.876c0.626-0.722,1.441-0.048,1.722,0.615c0.125,0.295,0.556,0.041,0.432-0.252
					c-0.41-0.967-1.68-1.671-2.508-0.717C217.899,151.765,218.251,152.12,218.462,151.876L218.462,151.876z"/>
			</g>
		</g>
		<g>
			<g>
				<path style="fill:#372723;" d="M220.536,152.556c0.586-0.624,1.505-0.525,1.927,0.221c0.158,0.28,0.591,0.028,0.432-0.252
					c-0.577-1.021-1.909-1.178-2.712-0.323C219.962,152.437,220.315,152.791,220.536,152.556L220.536,152.556z"/>
			</g>
		</g>
		<path style="fill:#191931;" d="M166.566,417.625c0,0,5.064,20.851,16.287,21.583c8.598,0.561,5.25-16.308,1.396-21.583H166.566z"
			/>
		<path style="fill:#191931;" d="M209.066,416.458c0,0-0.75,7.625,5.875,10.25s25.375,4.5,29,3.875s5-8.25-14.625-14.125H209.066z"
			/>
		<path style="fill:#191931;" d="M265.691,412.958c0,0-9.625,7.375-12.625,13.25s7.75,3.75,15.25-0.75s16.388-8.125,15.882-12.5
			H265.691z"/>
		<path style="fill:#191931;" d="M316.436,416.458c0,0-3.379,22.34,5.921,24.667c9.415,2.356,9.458-23.292,9.208-24.667H316.436z"/>
		<path style="fill:#4C4936;" d="M77.655,365.184c0,0,0.556-21.528-1.555-42.416c-0.01,0.033-7.469,24.503,0.732,49.461
			c0.643,0.76,1.293,1.51,1.951,2.244L77.655,365.184z"/>
		<path style="fill:#4C4936;" d="M99.312,328.034c-12.735,7.579-15.696,37.341-16.381,50.236
			C98.639,351.783,99.303,328.38,99.312,328.034z"/>
		<path style="fill:#679C93;" d="M84.691,340.625l10.377-5.053c0.788-6.161,1.203-12.096,1.25-17.416l-9.294,2.302l9.291-4.603
			c-0.187-15.927-3.901-25.365-10.964-16.564c-1.28,1.595-2.387,3.461-3.348,5.531l5.021,5.802l-5.881-3.806
			c-1.64,4.143-2.768,8.971-3.516,14.104l6.063,7.111l-6.302-5.359c-2.967,23.251,1.39,51.777,1.393,51.798
			c1.285,1.433,2.601,2.815,3.941,4.152c5.923-11.148,9.872-25.977,11.925-39.999L84.691,340.625z"/>
		<g>
			<path style="fill:#4C4936;" d="M99.448,367.185l-4.536-0.941c-1.86,2.177-4.496,6.359-5.216,12.962
				C93.292,375.883,96.588,371.719,99.448,367.185z"/>
			<path style="fill:#4C4936;" d="M96.817,364.375c0,0-0.365,0.273-0.916,0.811l4.932-0.281c0.133-0.227,0.259-0.458,0.389-0.687
				L96.817,364.375z"/>
		</g>
		<g>
			<path style="fill:#679C93;" d="M147.94,413.646c5.955-5.136,9.979-12.254,10.808-20.419c0.302-2.972,0.152-5.891-0.379-8.706
				l-35.006,5.114l-32.533-10.092c-0.577,1.71-1.001,3.49-1.269,5.325C107.242,399.648,128.354,407.744,147.94,413.646z"/>
			<g>
				<path style="fill:#679C93;" d="M91.328,378.169l32.036,11.466l-29.025-17.243C93.141,374.199,92.127,376.131,91.328,378.169z"/>
				<path style="fill:#679C93;" d="M96.781,369.18l26.582,20.455l0.129-32.37C112.808,357.273,103.111,361.848,96.781,369.18z"/>
				<path style="fill:#679C93;" d="M129.458,357.735l-6.095,31.9l28.026-19.667C146.111,363.678,138.413,359.156,129.458,357.735z"
					/>
				<path style="fill:#679C93;" d="M153.376,372.585l-30.012,17.05l33.692-9.9C156.138,377.21,154.899,374.812,153.376,372.585z"/>
			</g>
		</g>
		<ellipse style="fill:#1E162E;" cx="397.77" cy="422.406" rx="37.22" ry="5.697"/>
		<g>
			<path style="fill:#EAAC29;" d="M410.207,361.044c0,0,1.047-32.464,38.747-43.66c0,0-5.236,32.017-29.584,43.66H410.207z"/>
			<path style="fill:#A2222B;" d="M438.86,321.266c-27.789,13.4-28.653,39.778-28.653,39.778h4.056
				C433.858,346.495,438.819,321.474,438.86,321.266z"/>
			<path style="fill:#EAAC29;" d="M407.851,361.044c0,0-0.785-51.742,36.129-75.553c0,0-3.408,47.678-29.717,75.553H407.851z"/>
			<path style="fill:#A2222B;" d="M415.379,322.218c-7.808,20.103-7.528,38.827-7.528,38.827h2.356
				C418.308,345.896,415.391,322.309,415.379,322.218z"/>
			<path style="fill:#EAAC29;" d="M403.28,361.044c0,0-15.064-76.761-5.377-120.657c0,0,26.181,57.438,12.305,120.657H403.28z"/>
			<path style="fill:#A2222B;" d="M401.301,349.755c8.883-49.761-6.564-77.884-6.601-77.952
				C394.17,301.034,398.605,333.174,401.301,349.755z"/>
			<path style="fill:#EAAC29;" d="M396.331,361.044c0,0-1.833-60.878-18.065-78.943c0,0-8.116,46.879,12.305,78.943H396.331z"/>
			<path style="fill:#A2222B;" d="M386.292,297.014c-0.012,0.152-3.687,47.179,7.422,64.03l2.472-3.366
				C395.676,347.661,393.587,317.459,386.292,297.014z"/>
			<path style="fill:#A2222B;" d="M378.763,329.042c1.948,10.872,5.527,22.138,11.809,32.002h5.76
				C394.24,340.786,378.799,329.07,378.763,329.042z"/>
			<g>
				<path style="fill:#BAB0D0;" d="M388.847,418.625h28.975c24.008-14.605,18.801-51.756,18.801-51.756l-33.288-2.366l-33.288,2.366
					C370.046,366.869,364.839,404.02,388.847,418.625z"/>
				<path style="fill:#7763A1;" d="M440,367.962h-73.332c-0.861,0-1.558-0.698-1.558-1.558v-3.802c0-0.861,0.698-1.558,1.558-1.558
					H440c0.861,0,1.558,0.698,1.558,1.558v3.802C441.558,367.265,440.861,367.962,440,367.962z"/>
			</g>
			<path style="fill:#1E162E;" d="M436.961,370.66c0,0-37.838-0.167-67.193,10.482c0,0-0.47-9.781,0.153-13.18h66.827
				C436.748,367.962,436.912,369.755,436.961,370.66z"/>
			<path style="fill:#EAAC29;" d="M393.713,361.044c0,0-14.399-53.285,0-87.32c0,0,12.043,39.548,5.236,87.32H393.713z"/>
			<path style="fill:#EAAC29;" d="M393.713,361.044c0,0-10.734-36.653-39.533-43.66c0,0,6.545,30.446,29.061,43.66H393.713z"/>
			<path style="fill:#A2222B;" d="M412.659,297.029c-0.357-2.882-0.762-5.689-1.205-8.414l-5.634,3.959l-5.264,52.464
				c1.514,9.836,2.724,16.006,2.724,16.006C413.644,341.686,412.673,297.657,412.659,297.029z"/>
			<path style="fill:#A2222B;" d="M396.331,361.044h2.618l1.028-52.106C399.978,308.938,394.961,327.656,396.331,361.044z"/>
			<path style="fill:#EAAC29;" d="M397.771,361.044c0,0-0.393-79.99,14.007-114.286c0,0,3.054,75.765-6.72,114.286H397.771z"/>
			<path style="fill:#A2222B;" d="M354.18,317.384c0,0,2.421,11.223,9.355,22.997C363.027,323.62,354.18,317.384,354.18,317.384z"/>
			<path style="fill:#A2222B;" d="M406.264,264.776c0,0-5.607,9.464-3.973,22.623C402.29,287.4,404.708,271.011,406.264,264.776z"/>
			<path style="fill:#1E162E;" d="M427.225,367.962c0,0,0.466,33.552-15.35,50.663h-1.667c0,0,15.469-19.103,14.326-50.663H427.225z
				"/>
			<path style="fill:#1E162E;" d="M404.055,418.625c0,0,4.079-31.521,3.795-50.663h2.358c0,0-1.232,33.052-5.316,50.663H404.055z"/>
		</g>
		<rect x="89.069" y="280.384" style="fill:#BAB0D0;" width="296.241" height="3.622"/>
		<g>
			<g>
				<path style="fill:#372723;" d="M98.348,284.256c31.331,0,62.661,0,93.992,0c48.875,0,97.749,0,146.624,0
					c11.701,0,23.402,0,35.103,0c0.322,0,0.322-0.5,0-0.5c-31.331,0-62.661,0-93.992,0c-48.875,0-97.749,0-146.624,0
					c-11.701,0-23.402,0-35.103,0C98.026,283.756,98.026,284.256,98.348,284.256L98.348,284.256z"/>
			</g>
		</g>
		<circle style="fill:#1E162E;" cx="281.394" cy="279.475" r="0.473"/>
		<circle style="fill:#1E162E;" cx="279.873" cy="279.475" r="0.473"/>
		<g>
			<g>
				<path style="fill:#372723;" d="M182.746,294.808c6.255,4.52,11.927,10.092,14.697,17.453c2.85,7.574,2.295,15.984,0.838,23.794
					c-1.427,7.645-3.739,15.014-4.801,22.741c-0.744,5.409-1.347,10.858-1.872,16.293c-1.365,14.145-2.174,28.359-3.167,42.534
					c-0.022,0.321,0.478,0.32,0.5,0c1.027-14.668,1.789-29.399,3.318-44.024c0.927-8.865,1.746-17.826,3.921-26.488
					c1.909-7.604,3.852-15.182,3.784-23.083c-0.11-12.808-6.848-22.343-16.966-29.654
					C182.737,294.188,182.488,294.621,182.746,294.808L182.746,294.808z"/>
			</g>
		</g>
		<g>
			<g>
				<path style="fill:#372723;" d="M289.8,294.667c-7.74,9.992-13.491,21.865-10.055,34.697c0.083,0.31,0.566,0.179,0.482-0.133
					c-3.388-12.651,2.309-24.378,9.926-34.21C290.348,294.769,289.996,294.413,289.8,294.667L289.8,294.667z"/>
			</g>
		</g>
		<g>
			<g>
				<path style="fill:#372723;" d="M279.745,329.364c8.811,29.145,17.976,58.226,27.455,87.161c0.1,0.304,0.583,0.174,0.482-0.133
					c-9.479-28.935-18.644-58.015-27.455-87.161C280.134,328.924,279.652,329.055,279.745,329.364L279.745,329.364z"/>
			</g>
		</g>
		<path style="fill:#191931;" d="M130.053,173.458c0,0,0.346,2.986,3.429,2.417c2.708-0.5,2.042-5.458,6.167-6.292
			c4.125-0.833-5.958-0.583-5.958-0.583l-2.625,2.167L130.053,173.458z"/>
		<path style="fill:#4C4936;" d="M151.434,410.133c-29.098-3.769-61.873-25.266-61.873-25.266
			c17.68,14.78,38.792,22.876,58.379,28.778C149.197,412.562,150.362,411.385,151.434,410.133z"/>
		<g>
			<path style="fill:#CBC8C7;" d="M414.121,101.589H277.53c-0.349,0.333-0.698,0.665-1.05,1h137.64V101.589z"/>
			<path style="fill:#CBC8C7;" d="M291.134,88.66h122.451c-0.24-0.335-0.48-0.672-0.722-1H292.207
				C291.851,87.99,291.494,88.324,291.134,88.66z"/>
		</g>
		<g>
			<path style="fill:#CBC8C7;" d="M412.36,107.414H280.897v-5.727H412.36V107.414z M281.897,106.414H411.36v-3.727H281.897V106.414z
				"/>
		</g>
	</g>
</g>
</svg>
