<?xml version="1.0" encoding="utf-8"?>
<!-- Generator: Adobe Illustrator 27.5.0, SVG Export Plug-In . SVG Version: 6.00 Build 0)  -->
<svg version="1.1" xmlns="http://www.w3.org/2000/svg" xmlns:xlink="http://www.w3.org/1999/xlink" x="0px" y="0px"
	 viewBox="0 0 3710 3710" style="enable-background:new 0 0 3710 3710;" xml:space="preserve">
<g id="Background">
	<g>
		<g>
			<rect style="fill:#FFFFFF;" width="3710" height="3710"/>
		</g>
	</g>
</g>
<g id="Illustration">
	<g>
		<linearGradient id="SVGID_1_" gradientUnits="userSpaceOnUse" x1="3420.5264" y1="3604.6101" x2="1373.0994" y2="1394.6887">
			<stop  offset="0" style="stop-color:#DAE3FE"/>
			<stop  offset="1" style="stop-color:#E9EFFD"/>
		</linearGradient>
		<path style="fill:url(#SVGID_1_);" d="M3135.204,2345.259c-281.332,657.579-1023.956,940.025-1605.813,891.867
			c-158.871-13.149-478.522-39.605-728.109-275.631c-479.314-453.272-405.495-1400.738,53.346-1958.553
			c59.089-71.835,468.096-553.122,1105.457-546.68c466.641,4.717,794.171,268.316,833.998,301.155
			c50.311,41.485,161.278,140.067,261.286,296.46C3290.352,1421.347,3311.008,1934.337,3135.204,2345.259z"/>
		<g>
			
				<linearGradient id="SVGID_00000067949570168620042120000012220794290053708465_" gradientUnits="userSpaceOnUse" x1="2346.343" y1="663.1387" x2="2339.6064" y2="-448.5135">
				<stop  offset="0" style="stop-color:#E1473D"/>
				<stop  offset="1" style="stop-color:#E9605A"/>
			</linearGradient>
			
				<rect x="1563.16" y="1117.471" style="fill:url(#SVGID_00000067949570168620042120000012220794290053708465_);" width="1579.894" height="1323.877"/>
			<g>
				
					<linearGradient id="SVGID_00000163067463611453180560000011422047130409218983_" gradientUnits="userSpaceOnUse" x1="2045.9099" y1="-1558.5095" x2="2241.291" y2="132.5499">
					<stop  offset="0" style="stop-color:#FF928E"/>
					<stop  offset="1" style="stop-color:#FE7062"/>
				</linearGradient>
				<path style="fill:url(#SVGID_00000163067463611453180560000011422047130409218983_);" d="M3197.859,945.705l-1690.541,10.64
					c-22.926,0.144-41.849,16.922-41.849,37.476v252.232c0,19.792,17.848,35.948,39.923,36.088l1692.476,10.649
					c25.1,0.158,46.245-16.862,46.245-38.015V983.72C3244.114,962.567,3222.959,945.547,3197.859,945.705z"/>
				<g>
					
						<linearGradient id="SVGID_00000070081488777115659830000015397103966915145876_" gradientUnits="userSpaceOnUse" x1="2924.1672" y1="-386.2959" x2="2499.7383" y2="634.3537">
						<stop  offset="0" style="stop-color:#FEBBBA"/>
						<stop  offset="1" style="stop-color:#FF928E"/>
					</linearGradient>
					<path style="fill:url(#SVGID_00000070081488777115659830000015397103966915145876_);" d="M3197.086,945.705l-1691.713,10.649
						c-22.076,0.139-39.944,16.296-39.944,36.087l1777.139-8.721C3242.568,962.567,3222.186,945.547,3197.086,945.705z"/>
					
						<linearGradient id="SVGID_00000045618651967435187540000003056175940480850846_" gradientUnits="userSpaceOnUse" x1="2849.3237" y1="-74.3875" x2="2485.5286" y2="900.7847">
						<stop  offset="0" style="stop-color:#FEBBBA"/>
						<stop  offset="1" style="stop-color:#FF928E"/>
					</linearGradient>
					<path style="fill:url(#SVGID_00000045618651967435187540000003056175940480850846_);" d="M1505.372,1282.14l1691.713,10.649
						c25.1,0.158,45.482-16.862,45.482-38.015l-1777.139-8.722C1465.429,1265.844,1483.297,1282.001,1505.372,1282.14z"/>
				</g>
			</g>
			<g>
				
					<linearGradient id="SVGID_00000018197363486055896560000004911933931603903879_" gradientUnits="userSpaceOnUse" x1="1995.838" y1="-1552.7203" x2="2191.2192" y2="138.3392">
					<stop  offset="0" style="stop-color:#FF928E"/>
					<stop  offset="1" style="stop-color:#FE7062"/>
				</linearGradient>
				<path style="fill:url(#SVGID_00000018197363486055896560000004911933931603903879_);" d="M3199.216,1366.306l-1691.841-3.508
					c-23.658-0.049-43.221,17.073-43.477,38.247l-3.241,260.356c-0.248,20.468,17.997,37.227,40.828,37.427l1697.65,14.839
					c24.418,0.214,44.978-16.8,44.978-37.995v-271.054C3244.114,1383.506,3223.576,1366.356,3199.216,1366.306z"/>
				<g>
					
						<linearGradient id="SVGID_00000065794361963292872860000011655899694814928025_" gradientUnits="userSpaceOnUse" x1="2536.856" y1="1020.0089" x2="2284.2209" y2="1540.4377">
						<stop  offset="0" style="stop-color:#FEBBBA"/>
						<stop  offset="1" style="stop-color:#FF928E"/>
					</linearGradient>
					<path style="fill:url(#SVGID_00000065794361963292872860000011655899694814928025_);" d="M3198.443,1366.306l-1693.041-3.511
						c-22.781-0.047-41.433,16.44-41.679,36.83l1778.845,4.993C3242.568,1383.506,3222.803,1366.356,3198.443,1366.306z"/>
					
						<linearGradient id="SVGID_00000013906650987316887470000012316834316803672229_" gradientUnits="userSpaceOnUse" x1="2927.7937" y1="330.4636" x2="2281.0449" y2="1836.1743">
						<stop  offset="0" style="stop-color:#FEBBBA"/>
						<stop  offset="1" style="stop-color:#FF928E"/>
					</linearGradient>
					<path style="fill:url(#SVGID_00000013906650987316887470000012316834316803672229_);" d="M1501.437,1698.827l1696.901,14.839
						c24.418,0.214,44.229-16.8,44.229-37.995L1460.561,1661.4C1460.313,1681.868,1478.606,1698.627,1501.437,1698.827z"/>
				</g>
			</g>
			<g>
				
					<linearGradient id="SVGID_00000130649368974219632720000014933691477572308101_" gradientUnits="userSpaceOnUse" x1="1949.3359" y1="-1547.3523" x2="2144.7168" y2="143.7051">
					<stop  offset="0" style="stop-color:#FF928E"/>
					<stop  offset="1" style="stop-color:#FE7062"/>
				</linearGradient>
				<path style="fill:url(#SVGID_00000130649368974219632720000014933691477572308101_);" d="M3199.942,1787.831H1509.693
					c-24.447,0-44.224,18.021-44.224,39.987v269.582c0,21.153,19.043,37.401,42.584,37.401h1691.889
					c23.541,0,44.172-16.248,44.172-37.401v-271.055C3244.114,1805.193,3223.484,1787.831,3199.942,1787.831z"/>
				<g>
					
						<linearGradient id="SVGID_00000119111207802747477680000014195249837929238688_" gradientUnits="userSpaceOnUse" x1="2918.6516" y1="493.4827" x2="2201.1628" y2="2181.0938">
						<stop  offset="0" style="stop-color:#FEBBBA"/>
						<stop  offset="1" style="stop-color:#FF928E"/>
					</linearGradient>
					<path style="fill:url(#SVGID_00000119111207802747477680000014195249837929238688_);" d="M3199.942,1787.831H1508.054
						c-23.541,0-42.625,16.843-42.625,37.055h1777.139C3242.568,1804.675,3223.484,1787.831,3199.942,1787.831z"/>
					
						<linearGradient id="SVGID_00000077302878311280062620000006598367478973905048_" gradientUnits="userSpaceOnUse" x1="2879.3206" y1="1093.3247" x2="2439.7354" y2="1937.1271">
						<stop  offset="0" style="stop-color:#FEBBBA"/>
						<stop  offset="1" style="stop-color:#FF928E"/>
					</linearGradient>
					<path style="fill:url(#SVGID_00000077302878311280062620000006598367478973905048_);" d="M1508.054,2134.802h1691.889
						c23.541,0,42.625-16.843,42.625-37.055H1465.429C1465.429,2117.958,1484.512,2134.802,1508.054,2134.802z"/>
				</g>
			</g>
			<g>
				
					<linearGradient id="SVGID_00000026164432396087287760000015003076534203035032_" gradientUnits="userSpaceOnUse" x1="1900.6627" y1="-1541.7278" x2="2096.0437" y2="149.3305">
					<stop  offset="0" style="stop-color:#FF928E"/>
					<stop  offset="1" style="stop-color:#FE7062"/>
				</linearGradient>
				<path style="fill:url(#SVGID_00000026164432396087287760000015003076534203035032_);" d="M3201.734,2216.177l-1691.2-6.619
					c-24.894-0.097-45.064,17.641-45.064,39.617v269.581c0,21.143,19.411,38.29,43.372,38.299l1691.965,0.649
					c23.132,0.009,41.918-16.814,41.977-37.576l0.747-266.16C3243.588,2233.188,3224.879,2216.267,3201.734,2216.177z"/>
				<g>
					
						<linearGradient id="SVGID_00000137834225983726965650000005761188778674931885_" gradientUnits="userSpaceOnUse" x1="2861.5615" y1="1039.5048" x2="2411.8696" y2="2110.6816">
						<stop  offset="0" style="stop-color:#FEBBBA"/>
						<stop  offset="1" style="stop-color:#FF928E"/>
					</linearGradient>
					<path style="fill:url(#SVGID_00000137834225983726965650000005761188778674931885_);" d="M3201.734,2216.177l-1692.89-6.626
						c-23.973-0.094-43.416,16.987-43.416,38.15l1778.099,6.268C3243.585,2233.188,3224.879,2216.267,3201.734,2216.177z"/>
					
						<linearGradient id="SVGID_00000015320687195683540430000013335875091637486976_" gradientUnits="userSpaceOnUse" x1="2910.1238" y1="1422.0203" x2="2379.5898" y2="2472.9824">
						<stop  offset="0" style="stop-color:#FEBBBA"/>
						<stop  offset="1" style="stop-color:#FF928E"/>
					</linearGradient>
					<path style="fill:url(#SVGID_00000015320687195683540430000013335875091637486976_);" d="M1508.821,2557.055l1691.975,0.649
						c23.132,0.009,41.924-16.814,41.982-37.576l-1777.349-1.373C1465.429,2539.899,1484.86,2557.046,1508.821,2557.055z"/>
				</g>
			</g>
		</g>
		<g>
			<g>
				<g style="opacity:0.3;">
					<path style="fill:#91B3FA;" d="M2335.408,980.635c-5.685-0.983-9.826-6.124-9.431-12.006
						c0.859-12.865,2.293-25.884,4.257-38.694c0.956-6.233,6.781-10.511,13.012-9.556c0.075,0.013,0.147,0.025,0.219,0.038
						c6.112,1.057,10.279,6.818,9.334,12.975c-1.867,12.171-3.226,24.537-4.045,36.758c-0.419,6.289-5.86,11.05-12.152,10.628
						C2336.198,980.754,2335.799,980.703,2335.408,980.635z M2353.072,882.776c-0.44-0.076-0.881-0.179-1.32-0.309
						c-6.042-1.796-9.487-8.151-7.691-14.194c3.691-12.412,7.949-24.789,12.656-36.785c2.302-5.869,8.898-8.751,14.796-6.46
						c5.868,2.304,8.757,8.93,6.456,14.794c-4.473,11.403-8.517,23.161-12.023,34.958
						C2364.28,880.383,2358.694,883.747,2353.072,882.776z M2391.844,791.239c-1.252-0.216-2.49-0.648-3.661-1.307
						c-5.489-3.098-7.433-10.059-4.337-15.55c6.345-11.256,13.26-22.378,20.554-33.053c3.56-5.204,10.661-6.533,15.865-2.986
						c5.204,3.556,6.541,10.66,2.986,15.865c-6.927,10.137-13.491,20.695-19.519,31.386
						C2401.297,789.914,2396.467,792.038,2391.844,791.239z M2450.124,710.654c-2.07-0.358-4.064-1.291-5.731-2.81
						c-4.66-4.245-4.995-11.465-0.751-16.125c8.711-9.557,17.938-18.854,27.426-27.63c4.628-4.272,11.846-3.993,16.131,0.63
						c4.279,4.627,3.997,11.849-0.63,16.131c-9.011,8.334-17.777,17.162-26.051,26.247
						C2457.79,710.088,2453.839,711.297,2450.124,710.654z M2524.908,645.09c-2.902-0.502-5.609-2.119-7.423-4.727
						c-3.603-5.175-2.328-12.289,2.846-15.888c10.586-7.369,21.639-14.39,32.848-20.859c5.457-3.156,12.44-1.288,15.593,4.175
						c3.151,5.459,1.282,12.439-4.178,15.594c-10.656,6.149-21.16,12.822-31.221,19.824
						C2530.807,644.996,2527.764,645.584,2524.908,645.09z M2612.328,597.705c-3.759-0.65-7.107-3.165-8.645-6.961
						c-2.367-5.844,0.448-12.497,6.29-14.868c11.973-4.853,24.306-9.255,36.652-13.075c6.025-1.863,12.416,1.508,14.279,7.532
						c1.864,6.019-1.508,12.413-7.529,14.277c-11.732,3.632-23.447,7.81-34.824,12.423
						C2616.502,597.866,2614.356,598.056,2612.328,597.705z M3029.113,642.178c-1.557-0.269-3.081-0.867-4.471-1.814
						c-10.137-6.902-20.713-13.454-31.432-19.47c-5.496-3.086-7.452-10.044-4.366-15.537c3.084-5.499,10.042-7.454,15.54-4.368
						c11.289,6.336,22.429,13.235,33.105,20.502c5.212,3.548,6.56,10.65,3.012,15.86
						C3037.9,641.172,3033.388,642.917,3029.113,642.178z M2708.013,570.89c-4.666-0.807-8.521-4.487-9.322-9.422
						c-1.01-6.224,3.216-12.086,9.438-13.097c12.754-2.071,25.753-3.611,38.638-4.578c6.287-0.443,11.767,4.238,12.239,10.527
						c0.472,6.285-4.242,11.765-10.53,12.239c-12.235,0.916-24.579,2.38-36.69,4.345C2710.5,571.111,2709.228,571.1,2708.013,570.89
						z M2941.132,595.846c-0.742-0.128-1.484-0.329-2.213-0.613c-11.432-4.46-23.209-8.483-35.001-11.964
						c-6.046-1.787-9.501-8.136-7.716-14.18c1.787-6.044,8.136-9.53,14.18-7.716c12.407,3.665,24.8,7.898,36.83,12.588
						c5.873,2.291,8.779,8.911,6.488,14.782C2951.695,593.886,2946.369,596.752,2941.132,595.846z M2807.29,566.12
						c-5.677-0.981-9.815-6.109-9.433-11.984c0.409-6.292,5.839-11.058,12.131-10.654c12.88,0.838,25.898,2.242,38.689,4.182
						c0.08,0.009,0.161,0.023,0.24,0.037c6.102,1.055,10.267,6.802,9.337,12.954c-0.944,6.235-6.76,10.523-12.995,9.577
						c-12.151-1.838-24.515-3.17-36.753-3.965C2808.095,566.237,2807.688,566.189,2807.29,566.12z"/>
					<path style="fill:#91B3FA;" d="M3091.017,693.092c-2.214-0.383-4.341-1.42-6.062-3.12c-4.188-4.136-8.533-8.249-12.912-12.237
						c-4.663-4.24-5.005-11.462-0.762-16.123c4.241-4.665,11.466-5.013,16.125-0.76c4.608,4.19,9.177,8.518,13.585,12.869
						c4.486,4.427,4.534,11.657,0.108,16.141C3098.368,692.63,3094.575,693.708,3091.017,693.092z"/>
				</g>
				<g style="opacity:0.3;">
					<path style="fill:#91B3FA;" d="M3223.576,1014.858c-5.428-0.938-9.526-5.701-9.457-11.386
						c0.074-5.883,0.025-11.869-0.147-17.786c-0.182-6.303,4.779-11.559,11.079-11.741c6.328-0.182,11.558,4.781,11.741,11.08
						c0.179,6.23,0.232,12.533,0.156,18.728c-0.078,6.303-5.251,11.35-11.555,11.274
						C3224.774,1015.02,3224.167,1014.96,3223.576,1014.858z"/>
					<path style="fill:#91B3FA;" d="M2703.753,1447.864c-5.175-0.895-10.355-1.881-15.538-2.958
						c-6.172-1.284-10.136-7.327-8.854-13.499c1.282-6.172,7.359-10.153,13.498-8.857c11.962,2.484,23.997,4.479,35.909,5.941
						c6.261,0.779,10.707,6.462,9.94,12.718c-0.768,6.261-6.465,10.711-12.721,9.941
						C2718.617,1450.248,2711.136,1449.141,2703.753,1447.864z M2630.187,1428.644c-0.628-0.108-1.258-0.272-1.881-0.493
						c-12.005-4.252-23.963-9.061-35.54-14.293c-5.744-2.595-8.297-9.357-5.702-15.099c2.597-5.745,9.374-8.311,15.103-5.701
						c10.996,4.969,22.356,9.534,33.763,13.579c5.941,2.104,9.051,8.628,6.947,14.567
						C2640.992,1426.525,2635.567,1429.574,2630.187,1428.644z M2785.969,1454.317c-5.303-0.917-9.373-5.498-9.457-11.074
						c-0.093-6.306,4.941-11.49,11.245-11.586c12.058-0.178,24.271-0.876,36.307-2.081c6.274-0.617,11.866,3.952,12.493,10.224
						c0.625,6.275-3.952,11.868-10.225,12.494c-12.674,1.266-25.539,2.001-38.237,2.191
						C2787.371,1454.496,2786.659,1454.437,2785.969,1454.317z M2542.087,1385.998c-1.428-0.247-2.83-0.775-4.132-1.592
						c-10.767-6.78-21.374-14.102-31.525-21.762c-5.031-3.797-6.032-10.952-2.235-15.984c3.799-5.036,10.951-6.039,15.986-2.236
						c9.639,7.272,19.71,14.226,29.937,20.664c5.336,3.356,6.936,10.407,3.577,15.74
						C2551.157,1384.86,2546.509,1386.762,2542.087,1385.998z M2882.992,1442.04c-4.35-0.752-8.054-4.007-9.156-8.574
						c-1.479-6.129,2.291-12.296,8.42-13.775c11.717-2.825,23.478-6.195,34.959-10.01c5.982-1.989,12.445,1.247,14.433,7.233
						c1.986,5.981-1.25,12.44-7.232,14.428c-12.086,4.019-24.469,7.566-36.806,10.542
						C2886.049,1442.261,2884.481,1442.298,2882.992,1442.04z M2974.974,1408.77c-3.477-0.601-6.628-2.802-8.306-6.209
						c-2.782-5.657-0.453-12.499,5.205-15.281c10.848-5.338,21.598-11.194,31.95-17.404c5.401-3.252,12.411-1.501,15.661,3.911
						c3.244,5.407,1.491,12.416-3.914,15.663c-10.895,6.537-22.206,12.699-33.623,18.314
						C2979.701,1408.868,2977.268,1409.167,2974.974,1408.77z M3057.514,1356.239c-2.645-0.457-5.138-1.843-6.951-4.102
						c-3.948-4.913-3.162-12.099,1.753-16.046c9.437-7.577,18.654-15.63,27.4-23.946c4.567-4.342,11.788-4.166,16.137,0.409
						c4.341,4.57,4.161,11.792-0.41,16.138c-9.204,8.748-18.906,17.229-28.834,25.2
						C3063.952,1356.026,3060.629,1356.777,3057.514,1356.239z M3126.629,1286.961c-1.833-0.317-3.611-1.086-5.168-2.328
						c-4.927-3.933-5.73-11.113-1.797-16.039c7.547-9.451,14.773-19.328,21.481-29.363c3.503-5.24,10.6-6.647,15.832-3.15
						c5.243,3.503,6.651,10.593,3.147,15.834c-7.065,10.57-14.676,20.974-22.619,30.922
						C3134.81,1286.208,3130.598,1287.648,3126.629,1286.961z M3178.869,1204.169c-1.03-0.178-2.053-0.504-3.041-0.983
						c-5.671-2.75-8.04-9.58-5.289-15.249c5.263-10.855,10.133-22.076,14.473-33.362c2.264-5.885,8.885-8.808,14.751-6.554
						c5.885,2.262,8.819,8.869,6.556,14.753c-4.57,11.879-9.696,23.695-15.239,35.121
						C3188.808,1202.58,3183.754,1205.014,3178.869,1204.169z M3211.622,1111.986c-0.231-0.04-0.462-0.089-0.692-0.142
						c-6.134-1.45-9.933-7.599-8.481-13.733c2.047-8.66,3.851-17.484,5.364-26.236c0.548-3.168,1.057-6.338,1.534-9.499
						c0.94-6.235,6.755-10.529,12.988-9.587c6.33,0.828,10.525,6.752,9.588,12.983c-0.501,3.33-1.038,6.658-1.615,9.992
						c-1.591,9.204-3.49,18.492-5.644,27.599C3223.268,1109.266,3217.52,1113.005,3211.622,1111.986z"/>
					<path style="fill:#91B3FA;" d="M2465.353,1324.8c-2.236-0.387-4.377-1.44-6.105-3.16c-4.377-4.363-8.744-8.901-12.98-13.488
						c-4.279-4.631-3.992-11.853,0.639-16.129c4.633-4.276,11.849-3.997,16.129,0.639c4.025,4.357,8.174,8.667,12.328,12.81
						c4.465,4.446,4.478,11.674,0.027,16.14C2472.661,1324.348,2468.889,1325.411,2465.353,1324.8z"/>
				</g>
				<g>
					<path style="fill:#91B3FA;" d="M2503.083,1196.964c1.117,1.982,3.37,3.038,5.608,2.628l63.868-11.702
						c20.521,22.324,44.749,41.537,72.101,56.559l3.886,64.772c0.136,2.273,1.699,4.207,3.891,4.819l75.018,20.935
						c2.193,0.611,4.531-0.236,5.824-2.107l36.864-53.401c31.178,1.311,61.854-2.58,90.969-11.053l48.581,43.082
						c1.703,1.51,4.176,1.773,6.158,0.656l67.848-38.242c1.984-1.119,3.039-3.371,2.628-5.609l-11.701-63.867
						c22.324-20.521,41.537-44.75,56.559-72.102l64.773-3.887c2.271-0.136,4.207-1.698,4.819-3.891l20.935-75.019
						c0.612-2.192-0.235-4.531-2.108-5.824l-53.401-36.864c1.312-31.178-2.578-61.853-11.052-90.968l43.082-48.581
						c1.509-1.702,1.773-4.176,0.656-6.158l-38.243-67.848c-1.117-1.984-3.37-3.038-5.609-2.628l-63.868,11.702
						c-20.52-22.325-44.749-41.538-72.101-56.559l-3.886-64.774c-0.136-2.271-1.698-4.207-3.891-4.819l-75.019-20.934
						c-2.192-0.613-4.531,0.234-5.824,2.108l-36.864,53.401c-31.178-1.313-61.854,2.579-90.969,11.053l-48.58-43.081
						c-1.702-1.511-4.177-1.774-6.159-0.657l-67.848,38.243c-1.983,1.117-3.038,3.37-2.628,5.608l11.701,63.867
						c-22.325,20.521-41.537,44.75-56.559,72.102l-64.773,3.886c-2.271,0.136-4.207,1.699-4.818,3.892l-20.935,75.017
						c-0.612,2.193,0.234,4.531,2.107,5.825l53.401,36.864c-1.311,31.178,2.58,61.853,11.052,90.968l-43.081,48.581
						c-1.511,1.703-1.774,4.175-0.656,6.159L2503.083,1196.964z"/>
					<g>
						<path style="fill:#BDD0FB;" d="M2768.476,1072.268c-37.604-6.501-65.85-39.823-64.875-79.084
							c1.074-43.157,37.055-77.39,80.209-76.318c20.908,0.515,40.359,9.149,54.77,24.296c14.415,15.148,22.068,35.005,21.547,55.91
							c-1.074,43.158-37.055,77.39-80.209,76.319C2776.028,1073.293,2772.204,1072.912,2768.476,1072.268z M2792.216,935.992
							c-2.904-0.502-5.86-0.796-8.861-0.871c-33.086-0.824-60.674,25.429-61.498,58.513c-0.822,33.088,25.418,60.688,58.515,61.5
							c33.086,0.824,60.674-25.429,61.498-58.513c0.398-16.031-5.468-31.253-16.521-42.87
							C2816.366,944.312,2804.828,938.172,2792.216,935.992z"/>
					</g>
					<path style="fill:#BDD0FB;" d="M2750.792,1183.961c-6.458-1.116-12.898-2.564-19.298-4.349l0,0
						c-2.014-0.561-4.02-1.156-6.016-1.782c-9.839-3.09-19.417-6.958-28.586-11.543c-0.125-0.063-0.25-0.125-0.375-0.187
						c-0.354-0.179-0.707-0.358-1.06-0.541c-0.688-0.35-1.373-0.708-2.056-1.066c-1.796-0.944-2.702-2.915-2.376-4.813
						c0.08-0.461,0.234-0.919,0.463-1.354c1.174-2.232,3.935-3.08,6.166-1.912c11.482,6.044,23.693,10.888,36.293,14.401
						c62.583,17.476,126.793,0.123,171.909-40.348c25.097-22.508,44.284-52.172,53.996-86.982
						c1.705-6.104,3.088-12.249,4.151-18.409c7.163-41.458-0.091-83.767-21.029-120.911c-24.049-42.669-63.276-73.418-110.45-86.582
						c-97.432-27.179-198.73,29.947-225.905,127.33c-1.676,6.004-3.041,12.072-4.094,18.174
						c-4.567,26.446-3.297,53.598,3.815,79.501c0.183,0.67,0.209,1.344,0.096,1.985c-0.292,1.687-1.528,3.143-3.29,3.625
						c-2.435,0.66-4.946-0.755-5.612-3.196c-7.466-27.196-8.802-55.703-4.007-83.466c1.105-6.406,2.539-12.773,4.295-19.076
						c28.531-102.244,134.949-162.195,237.156-133.675c49.527,13.82,90.704,46.102,115.951,90.895
						c21.983,38.995,29.596,83.41,22.079,126.934c-1.118,6.467-2.57,12.918-4.356,19.324
						c-13.823,49.529-46.102,90.708-90.894,115.956C2838.752,1183.877,2794.323,1191.486,2750.792,1183.961z"/>
				</g>
			</g>
			<g>
				<g style="opacity:0.3;">
					<path style="fill:#91B3FA;" d="M1900.338,1210.688c-3.005-0.52-5.435-2.958-5.799-6.145
						c-0.684-5.945-1.196-11.994-1.521-17.975c-0.212-3.886,2.766-7.207,6.656-7.423c3.893-0.228,7.21,2.77,7.423,6.656
						c0.31,5.699,0.798,11.464,1.449,17.138c0.446,3.864-2.331,7.359-6.199,7.809
						C1901.659,1210.826,1900.986,1210.8,1900.338,1210.688z"/>
					<path style="fill:#91B3FA;" d="M1899.122,1156.47c-3.521-0.609-6.079-3.797-5.824-7.434
						c0.715-10.281,1.968-20.642,3.723-30.791c0.37-2.137,0.764-4.276,1.18-6.42c0.749-3.825,4.628-6.138,8.269-5.578
						c3.822,0.744,6.316,4.446,5.575,8.265c-0.399,2.048-0.778,4.093-1.131,6.135c-1.674,9.681-2.868,19.563-3.553,29.366
						c-0.27,3.887-3.637,6.813-7.521,6.546C1899.596,1156.537,1899.356,1156.51,1899.122,1156.47z M1913.115,1084.618
						c-0.329-0.057-0.661-0.135-0.985-0.24c-3.704-1.206-5.731-5.183-4.528-8.887c3.857-11.882,8.487-23.63,13.759-34.911
						c1.648-3.53,5.86-5.038,9.371-3.403c3.529,1.651,5.051,5.841,3.403,9.371c-5.03,10.764-9.444,21.969-13.125,33.301
						C1919.914,1083.223,1916.515,1085.206,1913.115,1084.618z M1944.115,1018.307c-0.882-0.152-1.748-0.477-2.552-0.979
						c-3.296-2.072-4.283-6.428-2.21-9.724c6.645-10.555,14.022-20.815,21.933-30.479c2.468-3.018,6.897-3.461,9.921-0.989
						c3.012,2.463,3.456,6.907,0.993,9.918c-7.543,9.218-14.578,18.993-20.912,29.062
						C1949.717,1017.606,1946.845,1018.779,1944.115,1018.307z M1990.469,961.643c-1.439-0.249-2.809-0.946-3.896-2.078
						c-2.685-2.819-2.58-7.286,0.239-9.971c9.047-8.623,18.704-16.755,28.714-24.178c3.129-2.317,7.545-1.651,9.86,1.467
						c2.321,3.126,1.666,7.54-1.464,9.863c-9.54,7.071-18.756,14.833-27.381,23.053
						C1994.86,961.403,1992.596,962.01,1990.469,961.643z M2049.256,918.021c-2.008-0.347-3.853-1.56-4.937-3.474
						c-1.919-3.385-0.728-7.685,2.657-9.609c10.859-6.151,22.2-11.694,33.708-16.468c3.599-1.502,7.723,0.21,9.214,3.808
						c1.491,3.598-0.214,7.725-3.808,9.214c-10.982,4.558-21.799,9.842-32.159,15.716
						C2052.455,918.043,2050.806,918.289,2049.256,918.021z M2116.84,889.992c-2.602-0.45-4.844-2.354-5.597-5.069
						c-1.039-3.75,1.163-7.631,4.913-8.673c12.027-3.329,24.377-5.938,36.7-7.748c3.865-0.555,7.434,2.103,8.001,5.953
						c0.567,3.85-2.099,7.434-5.949,7.998c-11.754,1.727-23.523,4.213-34.989,7.387
						C2118.881,890.128,2117.833,890.164,2116.84,889.992z M2189.206,879.34c-3.256-0.563-5.766-3.365-5.841-6.788
						c-0.085-3.892,3.001-7.118,6.895-7.206c12.436-0.275,25.05,0.23,37.499,1.494c3.875,0.46,6.697,3.862,6.299,7.733
						c-0.393,3.873-3.854,6.692-7.727,6.301c-11.874-1.214-23.906-1.694-35.763-1.431
						C2190.102,879.453,2189.647,879.416,2189.206,879.34z M2297.216,897.104c-0.4-0.069-0.805-0.174-1.203-0.32
						c-9.666-3.495-19.693-6.521-29.805-8.995c-1.53-0.383-3.036-0.742-4.543-1.079c-3.798-0.866-6.178-4.638-5.315-8.436
						c0.858-3.807,4.682-6.289,8.434-5.319c1.606,0.368,3.208,0.743,4.812,1.146c10.564,2.588,21.076,5.76,31.212,9.427
						c3.663,1.325,5.557,5.363,4.232,9.025C2303.86,895.815,2300.523,897.676,2297.216,897.104z"/>
				</g>
				<g style="opacity:0.3;">
					<path style="fill:#91B3FA;" d="M2149.335,1470.557c-3.792-0.656-6.365-4.245-5.758-8.059c0.612-3.842,4.227-6.466,8.071-5.85
						c11.576,1.847,23.362,3.004,35.032,3.436c3.865,0.179,6.932,3.413,6.786,7.307c-0.145,3.894-3.419,6.927-7.307,6.786
						c-12.238-0.46-24.595-1.667-36.729-3.604C2149.4,1470.568,2149.366,1470.562,2149.335,1470.557z M2114.124,1462.744
						c-0.251-0.043-0.496-0.1-0.746-0.171c-11.802-3.368-23.519-7.489-34.826-12.246c-3.588-1.515-5.274-5.642-3.763-9.23
						c1.509-3.596,5.66-5.261,9.231-3.77c10.789,4.541,21.969,8.472,33.231,11.69c3.743,1.066,5.911,4.97,4.842,8.711
						C2121.093,1461.231,2117.625,1463.349,2114.124,1462.744z M2221.271,1473.211c-3.08-0.532-5.539-3.082-5.82-6.344
						c-0.333-3.872,2.539-7.289,6.419-7.624c11.686-1.012,23.404-2.738,34.838-5.143c3.821-0.785,7.548,1.641,8.346,5.454
						c0.802,3.807-1.64,7.549-5.45,8.35c-11.985,2.518-24.273,4.328-36.521,5.382
						C2222.461,1473.34,2221.854,1473.312,2221.271,1473.211z M2047.754,1434.767c-0.79-0.136-1.57-0.411-2.308-0.832
						c-10.653-6.111-21.036-12.943-30.855-20.307c-3.117-2.335-3.747-6.754-1.413-9.872c2.332-3.104,6.752-3.737,9.868-1.41
						c9.365,7.019,19.261,13.53,29.418,19.36c3.375,1.938,4.544,6.249,2.605,9.624
						C2053.555,1433.968,2050.59,1435.257,2047.754,1434.767z M2291.709,1458.398c-2.459-0.425-4.618-2.146-5.477-4.671
						c-1.26-3.69,0.711-7.695,4.395-8.952c11.073-3.773,22.03-8.265,32.57-13.36c3.511-1.699,7.724-0.223,9.417,3.284
						c1.693,3.506,0.223,7.724-3.283,9.417c-11.053,5.334-22.541,10.049-34.149,14.009
						C2294.022,1458.519,2292.832,1458.592,2291.709,1458.398z M2356.54,1427.119c-1.883-0.325-3.624-1.409-4.736-3.139
						c-2.103-3.277-1.153-7.64,2.124-9.742c9.871-6.336,19.442-13.324,28.446-20.767c3.004-2.485,7.451-2.059,9.927,0.941
						c2.482,3,2.06,7.44-0.939,9.92c-9.441,7.807-19.472,15.135-29.815,21.773
						C2360.002,1427.095,2358.216,1427.409,2356.54,1427.119z M2412.016,1381.205c-1.323-0.229-2.595-0.833-3.641-1.831
						c-2.829-2.676-2.948-7.141-0.269-9.968c8.07-8.505,15.683-17.586,22.629-26.984c2.314-3.121,6.73-3.79,9.858-1.475
						c3.131,2.316,3.794,6.727,1.478,9.862c-7.286,9.85-15.269,19.376-23.729,28.303
						C2416.653,1380.89,2414.261,1381.594,2412.016,1381.205z"/>
					<path style="fill:#91B3FA;" d="M1989.876,1391.357c-1.34-0.232-2.626-0.853-3.681-1.866
						c-4.349-4.182-8.592-8.514-12.618-12.871c-2.639-2.86-2.465-7.323,0.395-9.965c2.862-2.628,7.318-2.459,9.965,0.396
						c3.837,4.157,7.887,8.288,12.036,12.282c2.806,2.699,2.89,7.165,0.191,9.968
						C1994.477,1391.049,1992.104,1391.743,1989.876,1391.357z"/>
				</g>
				<g>
					<path style="fill:#91B3FA;" d="M2011.165,1302.612c0.747,1.326,2.255,2.033,3.753,1.758l42.738-7.83
						c13.731,14.938,29.944,27.795,48.247,37.847l2.601,43.342c0.091,1.52,1.137,2.815,2.604,3.225l50.198,14.009
						c1.468,0.409,3.032-0.158,3.898-1.41l24.667-35.734c20.863,0.877,41.39-1.726,60.872-7.396l32.507,28.828
						c1.14,1.01,2.795,1.187,4.122,0.439l45.401-25.59c1.327-0.749,2.033-2.255,1.759-3.753l-7.83-42.737
						c14.939-13.731,27.795-29.945,37.847-48.247l43.343-2.6c1.52-0.091,2.815-1.137,3.225-2.603l14.008-50.199
						c0.41-1.467-0.157-3.033-1.41-3.897l-35.734-24.668c0.878-20.863-1.726-41.39-7.396-60.872l28.829-32.509
						c1.01-1.139,1.186-2.794,0.439-4.12l-25.591-45.402c-0.747-1.327-2.255-2.032-3.752-1.758l-42.738,7.831
						c-13.73-14.939-29.944-27.795-48.247-37.847l-2.601-43.344c-0.091-1.52-1.136-2.815-2.604-3.225l-50.199-14.008
						c-1.467-0.41-3.031,0.157-3.897,1.41l-24.667,35.734c-20.863-0.878-41.39,1.725-60.873,7.396l-32.507-28.828
						c-1.139-1.011-2.795-1.187-4.122-0.439l-45.401,25.59c-1.326,0.748-2.033,2.255-1.759,3.753l7.83,42.737
						c-14.939,13.731-27.794,29.945-37.846,48.247l-43.344,2.6c-1.519,0.091-2.815,1.137-3.223,2.604l-14.009,50.198
						c-0.409,1.468,0.157,3.032,1.41,3.898l35.734,24.668c-0.877,20.863,1.726,41.389,7.395,60.871l-28.828,32.508
						c-1.01,1.14-1.186,2.794-0.439,4.122L2011.165,1302.612z"/>
					<g>
						<path style="fill:#BDD0FB;" d="M2188.517,1220.089c-11.207-1.937-21.457-7.391-29.439-15.779
							c-9.818-10.319-15.029-23.846-14.673-38.086c0.728-29.387,25.234-52.707,54.631-51.984
							c29.433,0.784,52.719,25.247,51.987,54.639c-0.352,14.242-6.231,27.492-16.55,37.307
							c-10.319,9.822-23.846,15.035-38.089,14.676C2193.723,1220.793,2191.092,1220.534,2188.517,1220.089z M2204.417,1128.899
							c-1.869-0.323-3.782-0.513-5.733-0.565c-21.623-0.531-39.648,16.621-40.186,38.244c-0.259,10.47,3.571,20.426,10.794,28.011
							c7.226,7.593,16.971,11.905,27.446,12.179l0,0c10.474,0.26,20.426-3.575,28.014-10.794
							c7.593-7.225,11.916-16.972,12.176-27.45C2237.417,1148.857,2223.26,1132.157,2204.417,1128.899z"/>
					</g>
					<path style="fill:#BDD0FB;" d="M2176.106,1297.817c-4.396-0.76-8.787-1.75-13.174-2.969c-8.709-2.428-17.18-5.744-25.197-9.869
						c-0.359-0.188-0.718-0.376-1.077-0.564c-2.774-1.458-4.172-4.501-3.669-7.432c0.123-0.712,0.361-1.419,0.714-2.091
						c1.812-3.446,6.075-4.749,9.52-2.952c7.448,3.922,15.353,7.056,23.492,9.323l0.003,0.001c0.446,0.126,0.897,0.245,1.342,0.364
						c19.312,5.19,39.187,5.37,58.128,0.82c10.282-2.471,20.293-6.344,29.789-11.584c0.077-0.042,0.154-0.085,0.232-0.127
						c0.236-0.134,0.471-0.261,0.704-0.396c27.62-15.571,47.529-40.964,56.05-71.504c1.106-3.952,1.999-7.927,2.689-11.916
						c4.636-26.839-0.061-54.228-13.615-78.28c-15.571-27.621-40.965-47.522-71.502-56.043
						c-30.523-8.505-62.572-4.641-90.195,10.923c-27.62,15.57-47.528,40.964-56.05,71.504c-1.087,3.885-1.969,7.814-2.652,11.761
						c-2.957,17.124-2.135,34.698,2.47,51.466c0.283,1.034,0.323,2.075,0.148,3.065c-0.45,2.605-2.359,4.854-5.08,5.599
						c-3.757,1.02-7.634-1.173-8.667-4.936c-5.151-18.762-6.072-38.429-2.769-57.582c0.765-4.423,1.751-8.815,2.964-13.161
						c9.537-34.173,31.807-62.581,62.714-80.001c30.902-17.414,66.725-21.786,100.904-12.222c34.17,9.533,62.579,31.8,79.995,62.709
						c15.167,26.902,20.42,57.545,15.232,87.573c-0.771,4.457-1.771,8.91-3.003,13.328
						C2308.085,1268.776,2242.38,1309.274,2176.106,1297.817z"/>
				</g>
			</g>
		</g>
		<g>
			
				<linearGradient id="SVGID_00000083779040705955931870000002882647283221486517_" gradientUnits="userSpaceOnUse" x1="-724.6317" y1="2802.6926" x2="-239.5307" y2="1347.3857" gradientTransform="matrix(-1 0 0 1 1155.7772 0)">
				<stop  offset="0" style="stop-color:#09005D"/>
				<stop  offset="1" style="stop-color:#1A0F91"/>
			</linearGradient>
			<path style="fill:url(#SVGID_00000083779040705955931870000002882647283221486517_);" d="M627.839,2855.487
				c0,20.871,17.093,37.946,37.983,37.946h2053.961c20.891,0,37.983-17.076,37.983-37.946l17.091-1180.355
				c0-20.87-24.589-61.615-69.653-58.553l-2007.357-51.94c-26.212-0.678-51.555,9.411-70.117,27.912s-28.718,43.797-28.098,69.984
				L627.839,2855.487z"/>
			
				<linearGradient id="SVGID_00000048481592435901173330000002080146712339935875_" gradientUnits="userSpaceOnUse" x1="636.7046" y1="2232.3169" x2="2722.312" y2="2232.3169">
				<stop  offset="0" style="stop-color:#4F52FF"/>
				<stop  offset="1" style="stop-color:#4042E2"/>
			</linearGradient>
			<path style="fill:url(#SVGID_00000048481592435901173330000002080146712339935875_);" d="M665.338,2819.082
				c0,19.763,16.17,35.934,35.934,35.934H2670.25c19.764,0,35.934-16.171,35.934-35.934l16.128-1071.537
				c-1.899-64.483-58.432-87.658-92.702-86.29l-1923.869-51.614c-18.415-0.494-36.219,6.601-49.262,19.61
				c-13.043,13.009-20.216,30.813-19.754,49.229L665.338,2819.082z"/>
			<g>
				<path style="fill:#7D97F4;" d="M2684.908,2310.027c0,0-0.052,0-0.079,0c-2.909-0.042-5.233-2.434-5.188-5.346l1.275-86.9
					c0.042-2.881,2.392-5.188,5.262-5.188c0.026,0,0.052,0,0.052,0c2.936,0.042,5.259,2.434,5.214,5.346l-1.275,86.9
					C2690.128,2307.719,2687.778,2310.027,2684.908,2310.027z"/>
				<path style="fill:#7D97F4;" d="M2688.035,2097.077c0,0-0.052,0-0.079,0c-2.91-0.042-5.233-2.439-5.188-5.346l4.886-332.828
					c-0.092-19.77-6.092-35.555-17.838-46.809c-21.925-21.005-56.733-19.932-58.199-19.864l-614.911-16.49
					c-2.907-0.074-5.201-2.497-5.122-5.404c0.076-2.907,2.31-5.383,5.406-5.12l614.546,16.49
					c3.824-0.226,40.885-0.867,65.566,22.781c13.885,13.304,20.979,31.633,21.084,54.467l-4.889,332.934
					C2693.255,2094.77,2690.906,2097.077,2688.035,2097.077z"/>
			</g>
			
				<linearGradient id="SVGID_00000126323614387573402870000015497053874221854139_" gradientUnits="userSpaceOnUse" x1="404.3717" y1="2715.6384" x2="-1756.3593" y2="3241.2214" gradientTransform="matrix(-1 0 0 1 1155.7772 0)">
				<stop  offset="0" style="stop-color:#09005D"/>
				<stop  offset="1" style="stop-color:#1A0F91"/>
			</linearGradient>
			<path style="fill:url(#SVGID_00000126323614387573402870000015497053874221854139_);" d="M466.866,2991.417h2410.231
				c3.11,0,5.654-2.544,5.654-5.654v-92.403c0-3.11-2.544-5.654-5.654-5.654H466.866c-3.11,0-5.654,2.544-5.654,5.654v92.403
				C461.212,2988.873,463.756,2991.417,466.866,2991.417z"/>
			<g>
				
					<rect x="1124.225" y="1683.247" transform="matrix(3.903452e-05 -1 1 3.903452e-05 -855.2009 3147.0789)" style="fill:#7D97F4;" width="43.551" height="635.819"/>
				
					<rect x="1121.23" y="1392.172" transform="matrix(3.903452e-05 -1 1 3.903452e-05 -567.1206 2853.0198)" style="fill:#7D97F4;" width="43.551" height="635.819"/>
				
					<rect x="1211.815" y="1555.362" transform="matrix(3.903613e-05 -1 1 3.903613e-05 -551.056 3018.1184)" style="fill:#7D97F4;" width="43.549" height="458.471"/>
				
					<rect x="918.529" y="1748.12" transform="matrix(3.903604e-05 -1 1 3.903604e-05 -840.8446 2721.3457)" style="fill:#7D97F4;" width="43.549" height="65.984"/>
				
					<rect x="1211.356" y="1628.161" transform="matrix(3.903613e-05 -1 1 3.903613e-05 -624.3143 3090.4546)" style="fill:#7D97F4;" width="43.549" height="458.471"/>
				
					<rect x="918.2" y="1820.918" transform="matrix(3.903613e-05 -1 1 3.903613e-05 -913.9724 2793.8125)" style="fill:#7D97F4;" width="43.549" height="65.984"/>
				
					<rect x="1209.672" y="1700.84" transform="matrix(3.903604e-05 -1 1 3.903604e-05 -698.6768 3161.4465)" style="fill:#7D97F4;" width="43.549" height="458.471"/>
				
					<rect x="914.279" y="1893.597" transform="matrix(3.673989e-05 -1 1 3.673989e-05 -990.5695 2862.5725)" style="fill:#7D97F4;" width="43.549" height="65.984"/>
				
					<rect x="1121.211" y="1986.304" transform="matrix(3.673837e-05 -1 1 3.673837e-05 -1161.269 3447.1157)" style="fill:#7D97F4;" width="43.551" height="635.819"/>
				
					<rect x="1208.802" y="1858.419" transform="matrix(3.673980e-05 -1 1 3.673980e-05 -857.124 3318.1548)" style="fill:#7D97F4;" width="43.549" height="458.471"/>
				
					<rect x="915.515" y="2051.177" transform="matrix(3.903604e-05 -1 1 3.903604e-05 -1146.9154 3021.3774)" style="fill:#7D97F4;" width="43.549" height="65.984"/>
				
					<rect x="1208.342" y="1931.218" transform="matrix(3.673980e-05 -1 1 3.673980e-05 -930.3823 3390.4912)" style="fill:#7D97F4;" width="43.549" height="458.471"/>
				
					<rect x="915.186" y="2123.976" transform="matrix(3.673980e-05 -1 1 3.673980e-05 -1220.041 3093.8491)" style="fill:#7D97F4;" width="43.549" height="65.984"/>
				
					<rect x="1206.658" y="2003.897" transform="matrix(3.673989e-05 -1 1 3.673989e-05 -1004.7448 3461.4832)" style="fill:#7D97F4;" width="43.549" height="458.471"/>
				
					<rect x="911.266" y="2196.654" transform="matrix(3.903604e-05 -1 1 3.903604e-05 -1296.6425 3162.5996)" style="fill:#7D97F4;" width="43.549" height="65.984"/>
				
					<rect x="1121.211" y="2288.97" transform="matrix(3.673837e-05 -1 1 3.673837e-05 -1463.9351 3749.7705)" style="fill:#7D97F4;" width="43.551" height="635.819"/>
				
					<rect x="1208.802" y="2161.085" transform="matrix(3.673980e-05 -1 1 3.673980e-05 -1159.79 3620.8096)" style="fill:#7D97F4;" width="43.549" height="458.471"/>
				
					<rect x="915.515" y="2353.843" transform="matrix(3.903613e-05 -1 1 3.903613e-05 -1449.5813 3324.0315)" style="fill:#7D97F4;" width="43.549" height="65.984"/>
				
					<rect x="1208.342" y="2233.884" transform="matrix(3.673980e-05 -1 1 3.673980e-05 -1233.0482 3693.146)" style="fill:#7D97F4;" width="43.549" height="458.471"/>
				
					<rect x="915.186" y="2426.642" transform="matrix(3.673989e-05 -1 1 3.673989e-05 -1522.707 3396.5039)" style="fill:#7D97F4;" width="43.549" height="65.984"/>
				
					<rect x="1206.658" y="2306.563" transform="matrix(3.673980e-05 -1 1 3.673980e-05 -1307.4108 3764.1382)" style="fill:#7D97F4;" width="43.549" height="458.471"/>
				
					<rect x="911.266" y="2499.32" transform="matrix(3.903604e-05 -1 1 3.903604e-05 -1599.3085 3465.2537)" style="fill:#7D97F4;" width="43.549" height="65.984"/>
				
					<rect x="1211.815" y="2456.6" transform="matrix(3.903613e-05 -1 1 3.903613e-05 -1452.2935 3919.3206)" style="fill:#7D97F4;" width="43.549" height="458.471"/>
				
					<rect x="918.529" y="2649.357" transform="matrix(3.903613e-05 -1 1 3.903613e-05 -1742.082 3622.5481)" style="fill:#7D97F4;" width="43.549" height="65.984"/>
				
					<rect x="1208.187" y="2529.398" transform="matrix(3.903604e-05 -1 1 3.903604e-05 -1528.7201 3988.4885)" style="fill:#7D97F4;" width="43.549" height="458.471"/>
				
					<rect x="915.031" y="2722.156" transform="matrix(3.903613e-05 -1 1 3.903613e-05 -1818.3782 3691.8464)" style="fill:#7D97F4;" width="43.549" height="65.984"/>
			</g>
			<g>
				
					<rect x="2153.841" y="2314.726" transform="matrix(4.757148e-05 -1 1 4.757148e-05 -367.7462 4719.3467)" style="fill:#7D97F4;" width="44.144" height="457.66"/>
				
					<rect x="2110.105" y="2098.526" transform="matrix(4.757061e-05 -1 1 4.757061e-05 -337.7159 4601.8525)" style="fill:#7D97F4;" width="44.145" height="742.534"/>
				
					<rect x="2273.909" y="2098.492" transform="matrix(4.530627e-05 -1 1 4.530627e-05 -100.2178 4691.9673)" style="fill:#7D97F4;" width="44.144" height="595.206"/>
				
					<rect x="2146.009" y="2152.656" transform="matrix(4.530442e-05 -1 1 4.530442e-05 -154.3753 4490.3345)" style="fill:#7D97F4;" width="44.146" height="339.405"/>
				
					<rect x="2281.435" y="1951.278" transform="matrix(4.757148e-05 -1 1 4.757148e-05 54.8829 4551.9141)" style="fill:#7D97F4;" width="44.144" height="594.472"/>
				
					<rect x="2182.153" y="1923.658" transform="matrix(4.304008e-05 -1 1 4.304008e-05 29.3052 4378.9575)" style="fill:#7D97F4;" width="44.145" height="502.335"/>
				
					<rect x="2007.02" y="1832.779" transform="matrix(4.757148e-05 -1 1 4.757148e-05 -71.9542 4129.9424)" style="fill:#7D97F4;" width="44.144" height="536.341"/>
				
					<rect x="2284.225" y="1721.271" transform="matrix(4.756954e-05 -1 1 4.756954e-05 278.958 4333.4316)" style="fill:#7D97F4;" width="44.146" height="611.919"/>
				
					<rect x="2288.023" y="1643.716" transform="matrix(4.757148e-05 -1 1 4.757148e-05 356.5161 4263.4707)" style="fill:#7D97F4;" width="44.144" height="619.505"/>
				
					<rect x="2289.346" y="1574.56" transform="matrix(4.757061e-05 -1 1 4.757061e-05 431.601 4191.0366)" style="fill:#7D97F4;" width="44.145" height="610.296"/>
				
					<rect x="2123.697" y="1555.958" transform="matrix(4.530617e-05 -1 1 4.530617e-05 339.732 3951.6272)" style="fill:#7D97F4;" width="44.144" height="499.963"/>
				
					<rect x="1624.844" y="1960.549" transform="matrix(4.757158e-05 -1 1 4.757158e-05 -378.5328 3672.1902)" style="fill:#7D97F4;" width="44.144" height="129.643"/>
				
					<rect x="1624.844" y="2036.42" transform="matrix(4.757148e-05 -1 1 4.757148e-05 -454.4038 3748.0576)" style="fill:#7D97F4;" width="44.144" height="129.643"/>
				
					<rect x="1624.844" y="2109.188" transform="matrix(4.757148e-05 -1 1 4.757148e-05 -527.1721 3820.8225)" style="fill:#7D97F4;" width="44.144" height="129.643"/>
				
					<rect x="1624.844" y="2183.214" transform="matrix(4.757158e-05 -1 1 4.757158e-05 -601.1982 3894.845)" style="fill:#7D97F4;" width="44.144" height="129.643"/>
				
					<rect x="1624.844" y="2259.085" transform="matrix(4.757148e-05 -1 1 4.757148e-05 -677.0693 3970.7126)" style="fill:#7D97F4;" width="44.144" height="129.643"/>
				
					<rect x="1624.844" y="2331.854" transform="matrix(4.757148e-05 -1 1 4.757148e-05 -749.8376 4043.4773)" style="fill:#7D97F4;" width="44.144" height="129.643"/>
				
					<rect x="1631.42" y="2404.395" transform="matrix(4.757148e-05 -1 1 4.757148e-05 -815.8026 4122.5913)" style="fill:#7D97F4;" width="44.144" height="129.643"/>
				
					<rect x="1631.42" y="2480.266" transform="matrix(4.757148e-05 -1 1 4.757148e-05 -891.6736 4198.4585)" style="fill:#7D97F4;" width="44.144" height="129.643"/>
				
					<rect x="1631.42" y="2553.034" transform="matrix(4.757148e-05 -1 1 4.757148e-05 -964.442 4271.2236)" style="fill:#7D97F4;" width="44.144" height="129.643"/>
				
					<rect x="1631.42" y="2627.266" transform="matrix(4.757158e-05 -1 1 4.757158e-05 -1038.6738 4345.4517)" style="fill:#7D97F4;" width="44.144" height="129.643"/>
				
					<rect x="1631.42" y="2703.137" transform="matrix(4.757148e-05 -1 1 4.757148e-05 -1114.5448 4421.3193)" style="fill:#7D97F4;" width="44.144" height="129.643"/>
				
					<rect x="1624.844" y="1888.622" transform="matrix(4.757158e-05 -1 1 4.757158e-05 -306.6063 3600.2671)" style="fill:#7D97F4;" width="44.144" height="129.643"/>
				
					<rect x="1624.844" y="1814.915" transform="matrix(4.757158e-05 -1 1 4.757158e-05 -232.8986 3526.563)" style="fill:#7D97F4;" width="44.144" height="129.643"/>
				
					<rect x="1624.844" y="1741.108" transform="matrix(4.757158e-05 -1 1 4.757158e-05 -159.0916 3452.7595)" style="fill:#7D97F4;" width="44.144" height="129.643"/>
				
					<rect x="1624.844" y="1667.353" transform="matrix(4.757158e-05 -1 1 4.757158e-05 -85.3373 3379.0085)" style="fill:#7D97F4;" width="44.144" height="129.643"/>
				<path style="fill:#7D97F4;" d="M1760.947,1710.091l-0.002,44.145l621.706,0.024c0.001-24.38-20.03-44.146-44.74-44.147
					L1760.947,1710.091z"/>
				
					<rect x="2295.696" y="2457.388" transform="matrix(4.757061e-05 -1 1 4.757061e-05 -453.2016 5088.4961)" style="fill:#7D97F4;" width="44.145" height="626.943"/>
				
					<rect x="2290" y="2387.081" transform="matrix(4.530617e-05 -1 1 4.530617e-05 -382.8895 5006.8057)" style="fill:#7D97F4;" width="44.144" height="615.55"/>
				<path style="fill:#7D97F4;" d="M2004.299,2600.198l-0.002,44.145l391.454,0.015c0.001-24.381-12.611-44.145-28.17-44.146
					L2004.299,2600.198z"/>
			</g>
			<path style="fill:#7D97F4;" d="M1522.644,2822.572h0.708c3.304,0,5.983-2.678,5.983-5.983V1685.824
				c0-3.304-2.679-5.983-5.983-5.983h-0.708c-3.304,0-5.983,2.678-5.983,5.983v1130.765
				C1516.661,2819.893,1519.34,2822.572,1522.644,2822.572z"/>
		</g>
		<g>
			
				<linearGradient id="SVGID_00000173877339863757745020000017502837887866737567_" gradientUnits="userSpaceOnUse" x1="411.1413" y1="1785.3324" x2="1562.233" y2="1785.3324" gradientTransform="matrix(-0.8921 -0.4518 -0.4518 0.8921 4471.8115 1622.2727)">
				<stop  offset="0" style="stop-color:#09005D"/>
				<stop  offset="1" style="stop-color:#1A0F91"/>
			</linearGradient>
			<path style="fill:url(#SVGID_00000173877339863757745020000017502837887866737567_);" d="M2420.303,2275.033l778.771,830.938
				c32.663,34.849,28.714,90.135-8.567,119.991l-6.121,4.902c-32.988,26.415-81.172,20.927-107.374-12.228l-709.87-898.277
				L2420.303,2275.033z"/>
			
				<ellipse transform="matrix(0.4518 -0.8921 0.8921 0.4518 -500.592 2872.9729)" style="opacity:0.5;fill:#FFFFFF;" cx="2087.315" cy="1843.796" rx="518.751" ry="528.28"/>
			
				<linearGradient id="SVGID_00000122700802725132512550000011533732529625213869_" gradientUnits="userSpaceOnUse" x1="-975.519" y1="1408.661" x2="200.1248" y2="1408.661" gradientTransform="matrix(-0.9101 -0.4144 -0.4144 0.9101 2318.2209 401.1121)">
				<stop  offset="0" style="stop-color:#09005D"/>
				<stop  offset="1" style="stop-color:#1A0F91"/>
			</linearGradient>
			<path style="fill:url(#SVGID_00000122700802725132512550000011533732529625213869_);" d="M1562.886,1578.236
				c-144.02,284.412-25.974,633.864,263.66,780.529c289.634,146.665,641.179,35.001,785.198-249.409
				c144.018-284.408,25.973-633.864-263.66-780.528C2058.45,1182.162,1706.904,1293.828,1562.886,1578.236z M1639.922,1617.245
				c122.863-242.63,422.768-337.892,669.857-212.771c247.087,125.119,347.793,423.241,224.929,665.871
				c-122.863,242.633-422.768,337.892-669.855,212.772C1617.764,2157.997,1517.059,1859.878,1639.922,1617.245z"/>
			<g>
				<path style="fill:#BDD0FB;" d="M2540.506,2150.681c-0.689-0.466-0.869-1.403-0.402-2.092
					c7.65-11.287,14.964-23.033,21.736-34.913c0.412-0.723,1.333-0.979,2.055-0.562c0.723,0.411,0.975,1.332,0.563,2.055
					c-6.81,11.946-14.164,23.76-21.859,35.11c-0.33,0.487-0.894,0.72-1.441,0.649
					C2540.93,2150.899,2540.708,2150.819,2540.506,2150.681z M2610.238,2005.061c-0.797-0.24-1.249-1.08-1.01-1.877
					c10.716-35.75,17.623-72.763,20.524-110.011c8.218-105.486-15.053-210.754-67.297-304.423
					c-53.493-95.909-134.057-173.082-232.98-223.175c-93.036-47.108-196.564-67.061-299.393-57.703
					c-0.829,0.077-1.563-0.533-1.637-1.363c-0.077-0.829,0.534-1.562,1.363-1.637c103.395-9.417,207.486,10.647,301.029,58.016
					c99.461,50.365,180.462,127.959,234.25,224.394c52.534,94.19,75.935,200.046,67.671,306.125
					c-2.92,37.462-9.864,74.688-20.644,110.643c-0.214,0.717-0.915,1.155-1.635,1.062
					C2610.399,2005.101,2610.318,2005.085,2610.238,2005.061z"/>
			</g>
			<path style="fill:#BDD0FB;" d="M3119.325,3220.057c33.529,4.336,56.752-4.554,69.047-26.429
				c12.512-22.264,8.89-50.656-9.015-70.653l-91.999-102.749c-0.552-0.621-1.508-0.676-2.127-0.118
				c-0.621,0.555-0.673,1.508-0.118,2.127l91.999,102.749c17.043,19.035,20.512,46.028,8.632,67.167
				c-11.758,20.918-34.209,29.286-67.075,24.777l-0.01-0.001c-0.82-0.106-1.574,0.47-1.686,1.291
				c-0.113,0.824,0.464,1.583,1.29,1.696C3118.615,3219.963,3118.974,3220.011,3119.325,3220.057z"/>
			<path style="fill:#BDD0FB;" d="M3057.695,2991.064c0.419,0.054,0.859-0.067,1.198-0.372c0.621-0.555,0.673-1.508,0.118-2.127
				l-11.923-13.317c-0.551-0.618-1.508-0.676-2.127-0.117c-0.621,0.555-0.673,1.508-0.118,2.127l11.923,13.317
				C3057.016,2990.854,3057.349,2991.019,3057.695,2991.064z"/>
		</g>
		<g>
			<path style="fill:#91B3FA;" d="M1459.067,1035.463c-4.084-0.097-7.371-3.436-7.445-7.572
				c-0.762-42.397-13.824-252.91-196.94-296.901c-203.866-48.976-297.159,160.921-297.159,160.921s-252.24-97.952-300.615,164.419
				c-158.16,38.43-199.251,247.547-96.382,349.73c16.345,16.236,38.253,25.412,61.15,25.621l990.492,9.033
				c29.071,0.266,54.848-18.998,63.107-47.219C1706.215,1287.77,1746.768,1042.284,1459.067,1035.463z"/>
			<path style="fill:#BDD0FB;" d="M1436.429,1039.96c-4.077-0.099-7.359-3.428-7.441-7.556
				c-0.811-40.664-13.745-235.864-186.211-276.783c-192.769-45.736-280.985,150.275-280.985,150.275
				s-238.511-91.471-284.252,153.541c-148.117,35.544-187.65,227.438-93.897,323.819c16.436,16.897,38.819,26.504,62.242,26.714
				l932.414,8.398c29.136,0.263,54.953-19.089,63.151-47.396C1670.528,1270.57,1705.036,1046.469,1436.429,1039.96z"/>
		</g>
		<g>
			<g>
				<path style="fill:#7D97F4;" d="M509.253,2820.552c-8.46,12.518-42.084,295.957-47.346,400.64
					c-0.356,7.079,5.307,12.982,12.395,12.982l0,0c6.113,0,11.314-4.453,12.257-10.492l61.5-394.114L509.253,2820.552z"/>
				<path style="fill:#7D97F4;" d="M779.589,2820.552c8.46,12.518,42.084,295.957,47.347,400.64
					c0.356,7.079-5.306,12.982-12.395,12.982l0,0c-6.113,0-11.314-4.453-12.257-10.492l-61.501-394.114L779.589,2820.552z"/>
				<path style="fill:#7D97F4;" d="M458.39,2798.431l-0.028,3.09c-0.203,22.236,18.953,40.476,42.94,40.884l284.269,4.835
					c23.641,0.402,43.348-16.682,44.495-38.574l0.148-2.828c1.196-22.831-18.192-42.066-42.846-42.507l-284.389-5.097
					C478.637,2757.797,458.595,2775.865,458.39,2798.431z"/>
			</g>
			<g>
				<g>
					
						<linearGradient id="SVGID_00000152232072130597397810000016397909118729455750_" gradientUnits="userSpaceOnUse" x1="928.5212" y1="3210.033" x2="1134.6504" y2="3210.033">
						<stop  offset="0" style="stop-color:#4F52FF"/>
						<stop  offset="1" style="stop-color:#4042E2"/>
					</linearGradient>
					<path style="fill:url(#SVGID_00000152232072130597397810000016397909118729455750_);" d="M1011.409,3210.896
						c-50.533,0-72.892-4.335-82.888-8.288c1.943,8.298,9.334,14.85,18.674,14.85h178.769c6.02,0,9.82-5.762,8.381-10.98
						C1113.968,3208.117,1070.687,3210.896,1011.409,3210.896z"/>
					
						<linearGradient id="SVGID_00000167371120258783276790000004988500002597318550_" gradientUnits="userSpaceOnUse" x1="1087.3351" y1="2813.6721" x2="1031.0153" y2="3202.7915">
						<stop  offset="0" style="stop-color:#09005D"/>
						<stop  offset="1" style="stop-color:#1A0F91"/>
					</linearGradient>
					<path style="fill:url(#SVGID_00000167371120258783276790000004988500002597318550_);" d="M1134.346,3206.478
						c-0.29-1.052-0.716-2.088-1.463-3.043c-13.618-17.385-40.973-44.69-78.185-44.166c-54.512,0.767-73.519,6.681-115.88,0.332
						l-9.994,33.125c-1.018,3.376-1.036,6.749-0.303,9.882c9.996,3.953,32.355,8.288,82.888,8.288
						C1070.687,3210.896,1113.968,3208.117,1134.346,3206.478z"/>
				</g>
				
					<linearGradient id="SVGID_00000121243066208418295300000001366471847689133468_" gradientUnits="userSpaceOnUse" x1="938.8176" y1="3147.9153" x2="994.5896" y2="3147.9153">
					<stop  offset="0" style="stop-color:#FEBBBA"/>
					<stop  offset="1" style="stop-color:#FF928E"/>
				</linearGradient>
				<path style="fill:url(#SVGID_00000121243066208418295300000001366471847689133468_);" d="M951.085,3123.906l-12.267,41.72
					c0,0,27.176,12.372,51.079,2.44l4.693-36.146L951.085,3123.906z"/>
				<g>
					
						<linearGradient id="SVGID_00000068659055465179465020000001418576035533389495_" gradientUnits="userSpaceOnUse" x1="1251.8236" y1="3169.1833" x2="1418.2498" y2="3169.1833">
						<stop  offset="0" style="stop-color:#4F52FF"/>
						<stop  offset="1" style="stop-color:#4042E2"/>
					</linearGradient>
					<path style="fill:url(#SVGID_00000068659055465179465020000001418576035533389495_);" d="M1321.605,3184.623
						c-39.392,31.651-59.524,42.293-69.781,45.486c6.688,5.222,16.533,5.675,23.815-0.175l139.357-111.973
						c4.693-3.771,4.063-10.621-0.311-13.768C1399.821,3118.227,1367.815,3147.494,1321.605,3184.623z"/>
					
						<linearGradient id="SVGID_00000183215249129322133540000012428539328921567663_" gradientUnits="userSpaceOnUse" x1="1366.2994" y1="2854.0459" x2="1309.9794" y2="3243.1675">
						<stop  offset="0" style="stop-color:#09005D"/>
						<stop  offset="1" style="stop-color:#1A0F91"/>
					</linearGradient>
					<path style="fill:url(#SVGID_00000183215249129322133540000012428539328921567663_);" d="M1414.685,3104.193
						c-0.883-0.635-1.86-1.171-3.038-1.444c-21.453-4.959-59.799-9.009-88.48,14.704c-42.016,34.74-53.146,51.233-90.126,72.84
						l12.859,31.96c1.312,3.256,3.4,5.885,5.924,7.856c10.257-3.194,30.39-13.835,69.781-45.486
						C1367.815,3147.494,1399.821,3118.227,1414.685,3104.193z"/>
				</g>
				
					<linearGradient id="SVGID_00000143596413106643533910000013338828145039845783_" gradientUnits="userSpaceOnUse" x1="1091.3606" y1="2675.5735" x2="610.7664" y2="3104.5159">
					<stop  offset="0" style="stop-color:#09005D"/>
					<stop  offset="1" style="stop-color:#1A0F91"/>
				</linearGradient>
				<path style="fill:url(#SVGID_00000143596413106643533910000013338828145039845783_);" d="M688.669,2648.568
					c0,0,302.541,24.703,364.605,53.92c62.064,29.217-50.648,438.702-50.648,438.702s-16.896,8.132-54.493-3.556
					c0,0,38.553-302.184,9.865-367.71l-327.573-53.58L688.669,2648.568z"/>
				
					<linearGradient id="SVGID_00000104672160591688948100000001304730444811052711_" gradientUnits="userSpaceOnUse" x1="1202.981" y1="3152.6094" x2="1269.5658" y2="3152.6094">
					<stop  offset="0" style="stop-color:#FEBBBA"/>
					<stop  offset="1" style="stop-color:#FF928E"/>
				</linearGradient>
				<path style="fill:url(#SVGID_00000104672160591688948100000001304730444811052711_);" d="M1202.981,3132.773
					c2.809,2.56,30.06,57.52,30.06,57.52s30.338-6.563,36.525-25.763l-27.298-49.605L1202.981,3132.773z"/>
				
					<linearGradient id="SVGID_00000150800750783499457980000010724245242104723615_" gradientUnits="userSpaceOnUse" x1="1222.2047" y1="2385.2036" x2="1094.1963" y2="2571.6018">
					<stop  offset="0" style="stop-color:#09005D"/>
					<stop  offset="1" style="stop-color:#1A0F91"/>
				</linearGradient>
				<path style="fill:url(#SVGID_00000150800750783499457980000010724245242104723615_);" d="M506.451,2646.039
					c0,0-9.859,23.723-9.457,55.249c0.557,43.598,35.608,78.977,79.155,81.151l357.652,16.31
					c7.553,0.344,13.943,5.572,15.836,12.892c8.404,32.509,49.485,132.338,250.294,331.538c5.342,5.3,13.665,6.202,20.028,2.183
					l28.585-18.057c3.001-1.896,3.959-5.83,2.165-8.893l-208.243-355.607c-10.938-18.05-28.52-31.09-48.968-36.317l-304.831-77.92
					L506.451,2646.039z"/>
				
					<linearGradient id="SVGID_00000056408133397585638980000018323254228847503270_" gradientUnits="userSpaceOnUse" x1="833.1288" y1="2214.3313" x2="865.9557" y2="2131.5505">
					<stop  offset="0" style="stop-color:#FEBBBA"/>
					<stop  offset="1" style="stop-color:#FF928E"/>
				</linearGradient>
				<path style="fill:url(#SVGID_00000056408133397585638980000018323254228847503270_);" d="M858.915,2090.55
					c0,0-38.314,67.742-77.377,100.559l80.742,45.049c0,0,18.194-71.713,59.76-92.715L858.915,2090.55z"/>
				
					<linearGradient id="SVGID_00000178920342573868509330000012309512466222474633_" gradientUnits="userSpaceOnUse" x1="935.8589" y1="974.9801" x2="875.2236" y2="1803.6665">
					<stop  offset="0" style="stop-color:#FF928E"/>
					<stop  offset="1" style="stop-color:#FE7062"/>
				</linearGradient>
				<path style="fill:url(#SVGID_00000178920342573868509330000012309512466222474633_);" d="M499.954,2648.568
					c0,0,96.554,23.53,188.714,0c0,0,128.958-173.357,178.85-220.541c0,0,79.581,125.578,256.713,143.374l9.879-22.075
					c0,0-141.016-65.005-184.429-164.888c-43.413-99.883-60.848-142.483-100.344-168.543c-24.597-16.23-39.325-27.317-46.936-33.372
					c-4.167-3.315-9.918-3.689-14.465-0.919C746.022,2207.148,548.8,2342.224,499.954,2648.568z"/>
				
					<linearGradient id="SVGID_00000021092199136563902220000009694128508242551220_" gradientUnits="userSpaceOnUse" x1="814.5623" y1="2377.0957" x2="862.2794" y2="2377.0957">
					<stop  offset="0" style="stop-color:#E1473D"/>
					<stop  offset="1" style="stop-color:#E9605A"/>
				</linearGradient>
				<path style="fill:url(#SVGID_00000021092199136563902220000009694128508242551220_);" d="M814.562,2334.8
					c0,0,17.164,44.747,47.717,84.592L814.562,2334.8z"/>
				
					<linearGradient id="SVGID_00000024696329218486070400000013313230649338289854_" gradientUnits="userSpaceOnUse" x1="1113.5813" y1="2536.2705" x2="1267.3832" y2="2536.2705">
					<stop  offset="0" style="stop-color:#FEBBBA"/>
					<stop  offset="1" style="stop-color:#FF928E"/>
				</linearGradient>
				<path style="fill:url(#SVGID_00000024696329218486070400000013313230649338289854_);" d="M1113.581,2537.797l19.938-5.314
					l60.536-14.018c7.287-1.687,14.947-0.396,21.278,3.587l52.05,32.748l-143.742-0.242L1113.581,2537.797z"/>
				<g>
					
						<linearGradient id="SVGID_00000183226211033396552120000009399293990023224960_" gradientUnits="userSpaceOnUse" x1="2830.3904" y1="2498.498" x2="2665.5708" y2="2624.6104" gradientTransform="matrix(0.9914 -0.1306 0.1306 0.9914 -2198.9988 -61.3823)">
						<stop  offset="0" style="stop-color:#FEBBBA"/>
						<stop  offset="1" style="stop-color:#FF928E"/>
					</linearGradient>
					<path style="fill:url(#SVGID_00000183226211033396552120000009399293990023224960_);" d="M919.747,1988.972
						c0,0,37.235,61.895,43.695,96.106c6.46,34.21,16.833,55.594-22.102,67.785c-38.934,12.19-75.119-3.239-97.828-35.172
						c0,0-35.464-49.144-31.926-71.649C815.124,2023.536,919.747,1988.972,919.747,1988.972z"/>
					
						<linearGradient id="SVGID_00000120549203086278520080000016819947038966757002_" gradientUnits="userSpaceOnUse" x1="2714.5967" y1="2398.9446" x2="2863.8464" y2="2591.1033" gradientTransform="matrix(0.9914 -0.1306 0.1306 0.9914 -2198.9988 -61.3823)">
						<stop  offset="0" style="stop-color:#09005D"/>
						<stop  offset="1" style="stop-color:#1A0F91"/>
					</linearGradient>
					<path style="fill:url(#SVGID_00000120549203086278520080000016819947038966757002_);" d="M853.877,2091.214l5.038-0.664
						c0,0-26.366-39.84-9.113-49.723c17.252-9.883,87.554-34.133,99.764-61.821c11.77-26.691-5.837-56.847-27.063-63.139
						c-1.343-0.398-2.76,0.396-3.247,1.709l-1.247,3.362c-0.854,2.302-4.076,2.394-5.06,0.145l0,0
						c-0.934-2.134-3.988-2.223-4.949-0.103c-3.762,8.295-15.039,22.462-48.847,33.423c-47.973,15.552-77.856,39.734-74.178,73.819
						c0.233,2.159-1.912,3.649-3.898,2.771c-3.921-1.734-9.867-2.007-16.77,5.544c-12.005,13.131-2.601,41.851,30.186,62.175
						c1.558,0.966,1.836,3.163,0.443,4.355c-4.905,4.2-11.806,13.564,10.377,21.912c22.693,8.539,35.076,5.65,39.651,3.815
						c1.231-0.494,1.934-1.768,1.68-3.07l-5.828-29.868c-0.301-1.544,0.763-3.024,2.323-3.23L853.877,2091.214z"/>
					
						<linearGradient id="SVGID_00000024692484661799868900000016181505978513508997_" gradientUnits="userSpaceOnUse" x1="2809.9465" y1="2471.7798" x2="2645.1262" y2="2597.8923" gradientTransform="matrix(0.9914 -0.1306 0.1306 0.9914 -2198.9988 -61.3823)">
						<stop  offset="0" style="stop-color:#FEBBBA"/>
						<stop  offset="1" style="stop-color:#FF928E"/>
					</linearGradient>
					<path style="fill:url(#SVGID_00000024692484661799868900000016181505978513508997_);" d="M855.945,2097.351
						c0,0-16.43-40.507-33.686-26.269c-17.256,14.238,15.95,45.71,31.275,45.288L855.945,2097.351z"/>
				</g>
			</g>
			<g>
				<g>
					
						<linearGradient id="SVGID_00000116237186311795811230000010364327560336933565_" gradientUnits="userSpaceOnUse" x1="20656.541" y1="-22129.4551" x2="20245.209" y2="-21731.7773" gradientTransform="matrix(-1.388 -0.0686 -0.0685 1.3855 -4690.1738 -570.6171)">
						<stop  offset="0" style="stop-color:#09005D"/>
						<stop  offset="1" style="stop-color:#1A0F91"/>
					</linearGradient>
					<path style="fill:url(#SVGID_00000116237186311795811230000010364327560336933565_);" d="M1058.048,2582.997
						c0.234,0.012,0.469,0.018,0.706,0.016l307.078-0.307c7.592-0.006,13.738-6.154,13.729-13.732
						c-0.008-7.58-6.191-13.842-13.762-13.707l-307.079,0.307c-7.591,0.005-13.737,6.154-13.729,13.731
						C1045.001,2576.648,1050.786,2582.639,1058.048,2582.997z"/>
				</g>
				<g>
					
						<linearGradient id="SVGID_00000007393650863764397780000013583607257968524435_" gradientUnits="userSpaceOnUse" x1="17511.4336" y1="-22142.4453" x2="17100.1211" y2="-21744.7852" gradientTransform="matrix(0.6475 -1.2297 -1.2274 -0.6463 8775.9707 -5472.2012)">
						<stop  offset="0" style="stop-color:#09005D"/>
						<stop  offset="1" style="stop-color:#1A0F91"/>
					</linearGradient>
					<path style="fill:url(#SVGID_00000007393650863764397780000013583607257968524435_);" d="M1484.755,2282.271
						c-0.109,0.208-0.214,0.418-0.312,0.634l-129.206,278.573c-3.196,6.886-0.212,15.051,6.662,18.239
						c6.877,3.189,15.162,0.223,18.231-6.699l129.206-278.573c3.196-6.886,0.212-15.051-6.662-18.239
						C1496.013,2273.118,1488.143,2275.837,1484.755,2282.271z"/>
				</g>
			</g>
			<g>
				<path style="fill:#BDD0FB;" d="M1194.78,2606.077c-1.342,5.557-129.472,486.109-161.958,607.937
					c-3.744,14.041,6.712,27.827,21.082,27.827l0,0c10.02,0,18.753-6.903,21.18-16.742l142.234-576.682L1194.78,2606.077z"/>
				<path style="fill:#BDD0FB;" d="M1264.944,2606.077c1.342,5.557,129.473,486.109,161.958,607.937
					c3.744,14.041-6.712,27.827-21.081,27.827l0,0c-10.02,0-18.753-6.903-21.18-16.742l-142.234-576.682L1264.944,2606.077z"/>
				<path style="fill:#BDD0FB;" d="M1270.282,2590.364h-79.8v64.085c0,9.211,7.377,16.677,16.478,16.677h10.947v143.947
					c0,6.973,5.585,12.625,12.475,12.625l0,0c6.89,0,12.475-5.652,12.475-12.625v-143.947h5.555c12.079,0,21.87-9.91,21.87-22.135
					V2590.364z"/>
				<path style="fill:#BDD0FB;" d="M994.268,2574.97h445.583c6.228,0,11.666,4.265,13.222,10.367l6.221,24.395
					c2.239,8.779-4.342,17.326-13.301,17.274l-457.215-2.66c-8.862-0.052-15.328-8.5-13.164-17.197l5.411-21.735
					C982.555,2579.274,988.011,2574.97,994.268,2574.97z"/>
			</g>
		</g>
	</g>
</g>
</svg>
